<mxfile host="Electron" agent="Mozilla/5.0 (X11; Linux x86_64) AppleWebKit/537.36 (KHTML, like Gecko) draw.io/26.1.1 Chrome/132.0.6834.210 Electron/34.3.3 Safari/537.36" version="26.1.1" pages="2">
  <diagram id="yjM52eeoNh76isRD11Kq" name="Page-1">
    <mxGraphModel dx="2261" dy="871" grid="1" gridSize="10" guides="1" tooltips="1" connect="1" arrows="1" fold="1" page="1" pageScale="1" pageWidth="827" pageHeight="1169" math="0" shadow="0">
      <root>
        <mxCell id="0" />
        <mxCell id="1" parent="0" />
        <mxCell id="0EgQpEXkiBXssmi2810E-1" value="CONNECTOR&lt;br style=&quot;font-size: 14px;&quot;&gt;(CONSUMER)" style="shape=umlLifeline;perimeter=lifelinePerimeter;whiteSpace=wrap;html=1;container=1;dropTarget=0;collapsible=0;recursiveResize=0;outlineConnect=0;portConstraint=eastwest;newEdgeStyle={&quot;curved&quot;:0,&quot;rounded&quot;:0};fillColor=#4472C4;fontColor=#FFFFFF;fontStyle=1;fontSize=14;size=50;" parent="1" vertex="1">
          <mxGeometry x="-490" y="60" width="100" height="820" as="geometry" />
        </mxCell>
        <mxCell id="tXKb-f1KeoRgeHSG-G08-76" value="" style="html=1;points=[[0,0,0,0,5],[0,1,0,0,-5],[1,0,0,0,5],[1,1,0,0,-5]];perimeter=orthogonalPerimeter;outlineConnect=0;targetShapes=umlLifeline;portConstraint=eastwest;newEdgeStyle={&quot;curved&quot;:0,&quot;rounded&quot;:0};" parent="0EgQpEXkiBXssmi2810E-1" vertex="1">
          <mxGeometry x="40" y="86" width="10" height="714" as="geometry" />
        </mxCell>
        <mxCell id="tXKb-f1KeoRgeHSG-G08-1" value="" style="html=1;points=[[0,0,0,0,5],[0,1,0,0,-5],[1,0,0,0,5],[1,1,0,0,-5]];perimeter=orthogonalPerimeter;outlineConnect=0;targetShapes=umlLifeline;portConstraint=eastwest;newEdgeStyle={&quot;curved&quot;:0,&quot;rounded&quot;:0};" parent="0EgQpEXkiBXssmi2810E-1" vertex="1">
          <mxGeometry x="45" y="110" width="10" height="20" as="geometry" />
        </mxCell>
        <mxCell id="tXKb-f1KeoRgeHSG-G08-2" value="1- retrieve scope of&amp;nbsp;&amp;nbsp;&amp;nbsp;shareable VC&amp;nbsp; in&lt;br&gt;DSP Context&lt;br&gt;2- create accessToken&amp;nbsp;with previous &lt;br&gt;scopes&lt;br&gt;3- create SI Token containing accessToken" style="html=1;align=left;spacingLeft=2;endArrow=block;rounded=0;edgeStyle=orthogonalEdgeStyle;curved=0;rounded=0;" parent="0EgQpEXkiBXssmi2810E-1" target="tXKb-f1KeoRgeHSG-G08-1" edge="1">
          <mxGeometry relative="1" as="geometry">
            <mxPoint x="50" y="90" as="sourcePoint" />
            <Array as="points">
              <mxPoint x="80" y="120" />
            </Array>
          </mxGeometry>
        </mxCell>
        <mxCell id="0EgQpEXkiBXssmi2810E-2" value="" style="shape=umlLifeline;perimeter=lifelinePerimeter;whiteSpace=wrap;html=1;container=1;dropTarget=0;collapsible=0;recursiveResize=0;outlineConnect=0;portConstraint=eastwest;newEdgeStyle={&quot;curved&quot;:0,&quot;rounded&quot;:0};participant=umlActor;" parent="1" vertex="1">
          <mxGeometry x="-810" y="70" width="20" height="810" as="geometry" />
        </mxCell>
        <mxCell id="0EgQpEXkiBXssmi2810E-3" value="AUTHZ&lt;br style=&quot;font-size: 14px;&quot;&gt;(DCP impl PROVIDER)&lt;br&gt;" style="shape=umlLifeline;perimeter=lifelinePerimeter;whiteSpace=wrap;html=1;container=1;dropTarget=0;collapsible=0;recursiveResize=0;outlineConnect=0;portConstraint=eastwest;newEdgeStyle={&quot;curved&quot;:0,&quot;rounded&quot;:0};fillColor=#FFC000;fontStyle=1;fontSize=14;size=50;" parent="1" vertex="1">
          <mxGeometry x="130" y="60" width="110" height="520" as="geometry" />
        </mxCell>
        <mxCell id="tXKb-f1KeoRgeHSG-G08-12" value="" style="html=1;points=[[0,0,0,0,5],[0,1,0,0,-5],[1,0,0,0,5],[1,1,0,0,-5]];perimeter=orthogonalPerimeter;outlineConnect=0;targetShapes=umlLifeline;portConstraint=eastwest;newEdgeStyle={&quot;curved&quot;:0,&quot;rounded&quot;:0};" parent="0EgQpEXkiBXssmi2810E-3" vertex="1">
          <mxGeometry x="45" y="190" width="10" height="310" as="geometry" />
        </mxCell>
        <mxCell id="tXKb-f1KeoRgeHSG-G08-18" value="" style="html=1;points=[[0,0,0,0,5],[0,1,0,0,-5],[1,0,0,0,5],[1,1,0,0,-5]];perimeter=orthogonalPerimeter;outlineConnect=0;targetShapes=umlLifeline;portConstraint=eastwest;newEdgeStyle={&quot;curved&quot;:0,&quot;rounded&quot;:0};" parent="0EgQpEXkiBXssmi2810E-3" vertex="1">
          <mxGeometry x="50" y="230" width="10" height="20" as="geometry" />
        </mxCell>
        <mxCell id="tXKb-f1KeoRgeHSG-G08-19" value="1- check SI Token validity&lt;br&gt;2- extract accessToken&amp;nbsp;&lt;br&gt;3- create SI Token2 containing &lt;br&gt;accessToken&lt;br&gt;4- retrieve scope of mandatory VC &lt;br&gt;and policyId of the DSP Context from&amp;nbsp;&lt;br&gt;connector" style="html=1;align=left;spacingLeft=2;endArrow=block;rounded=0;edgeStyle=orthogonalEdgeStyle;curved=0;rounded=0;" parent="0EgQpEXkiBXssmi2810E-3" target="tXKb-f1KeoRgeHSG-G08-18" edge="1">
          <mxGeometry relative="1" as="geometry">
            <mxPoint x="55" y="210" as="sourcePoint" />
            <Array as="points">
              <mxPoint x="85" y="240" />
            </Array>
          </mxGeometry>
        </mxCell>
        <mxCell id="tXKb-f1KeoRgeHSG-G08-50" value="" style="html=1;points=[[0,0,0,0,5],[0,1,0,0,-5],[1,0,0,0,5],[1,1,0,0,-5]];perimeter=orthogonalPerimeter;outlineConnect=0;targetShapes=umlLifeline;portConstraint=eastwest;newEdgeStyle={&quot;curved&quot;:0,&quot;rounded&quot;:0};" parent="0EgQpEXkiBXssmi2810E-3" vertex="1">
          <mxGeometry x="50" y="455" width="10" height="20" as="geometry" />
        </mxCell>
        <mxCell id="tXKb-f1KeoRgeHSG-G08-51" value="1- Check VP signature&lt;br&gt;2- generate participantAgent&amp;nbsp;&lt;br style=&quot;border-color: var(--border-color);&quot;&gt;from VC containing in VP&lt;br&gt;3- store pariticpanyAgent&amp;nbsp; and policyId" style="html=1;align=left;spacingLeft=2;endArrow=block;rounded=0;edgeStyle=orthogonalEdgeStyle;curved=0;rounded=0;" parent="0EgQpEXkiBXssmi2810E-3" target="tXKb-f1KeoRgeHSG-G08-50" edge="1">
          <mxGeometry relative="1" as="geometry">
            <mxPoint x="55" y="435" as="sourcePoint" />
            <Array as="points">
              <mxPoint x="85" y="465" />
            </Array>
          </mxGeometry>
        </mxCell>
        <mxCell id="tXKb-f1KeoRgeHSG-G08-7" value="API GATEWAY&lt;br style=&quot;font-size: 14px;&quot;&gt;(PROVIDER)" style="shape=umlLifeline;perimeter=lifelinePerimeter;whiteSpace=wrap;html=1;container=1;dropTarget=0;collapsible=0;recursiveResize=0;outlineConnect=0;portConstraint=eastwest;newEdgeStyle={&quot;curved&quot;:0,&quot;rounded&quot;:0};fillColor=#FFC000;fontStyle=1;fontSize=14;size=50;" parent="1" vertex="1">
          <mxGeometry x="-80" y="60" width="100" height="800" as="geometry" />
        </mxCell>
        <mxCell id="tXKb-f1KeoRgeHSG-G08-8" value="" style="html=1;points=[[0,0,0,0,5],[0,1,0,0,-5],[1,0,0,0,5],[1,1,0,0,-5]];perimeter=orthogonalPerimeter;outlineConnect=0;targetShapes=umlLifeline;portConstraint=eastwest;newEdgeStyle={&quot;curved&quot;:0,&quot;rounded&quot;:0};" parent="tXKb-f1KeoRgeHSG-G08-7" vertex="1">
          <mxGeometry x="45" y="170" width="10" height="600" as="geometry" />
        </mxCell>
        <mxCell id="tXKb-f1KeoRgeHSG-G08-9" value="DSP request&amp;nbsp;" style="html=1;verticalAlign=bottom;endArrow=block;curved=0;rounded=0;entryX=0;entryY=0;entryDx=0;entryDy=5;strokeWidth=3;" parent="1" source="0EgQpEXkiBXssmi2810E-1" target="tXKb-f1KeoRgeHSG-G08-8" edge="1">
          <mxGeometry relative="1" as="geometry">
            <mxPoint x="-195" y="315" as="sourcePoint" />
          </mxGeometry>
        </mxCell>
        <mxCell id="tXKb-f1KeoRgeHSG-G08-11" value="Header SI Token" style="text;html=1;align=center;verticalAlign=middle;resizable=0;points=[];autosize=1;strokeColor=none;fillColor=none;" parent="1" vertex="1">
          <mxGeometry x="-300" y="230" width="110" height="30" as="geometry" />
        </mxCell>
        <mxCell id="tXKb-f1KeoRgeHSG-G08-13" value="forward DSP request" style="html=1;verticalAlign=bottom;endArrow=block;curved=0;rounded=0;entryX=0;entryY=0;entryDx=0;entryDy=5;strokeWidth=3;" parent="1" source="tXKb-f1KeoRgeHSG-G08-7" target="tXKb-f1KeoRgeHSG-G08-12" edge="1">
          <mxGeometry relative="1" as="geometry">
            <mxPoint x="155" y="335" as="sourcePoint" />
          </mxGeometry>
        </mxCell>
        <mxCell id="tXKb-f1KeoRgeHSG-G08-15" value="Header SI Token" style="text;html=1;align=center;verticalAlign=middle;resizable=0;points=[];autosize=1;strokeColor=none;fillColor=none;" parent="1" vertex="1">
          <mxGeometry x="20" y="250" width="110" height="30" as="geometry" />
        </mxCell>
        <mxCell id="tXKb-f1KeoRgeHSG-G08-35" value="IDENTITY HUB&lt;br style=&quot;border-color: var(--border-color); font-size: 14px;&quot;&gt;(CONSUMER)" style="shape=umlLifeline;perimeter=lifelinePerimeter;whiteSpace=wrap;html=1;container=1;dropTarget=0;collapsible=0;recursiveResize=0;outlineConnect=0;portConstraint=eastwest;newEdgeStyle={&quot;curved&quot;:0,&quot;rounded&quot;:0};fillColor=#4472C4;fontColor=#FFFFFF;fontStyle=1;fontSize=14;size=50;" parent="1" vertex="1">
          <mxGeometry x="-620" y="60" width="100" height="460" as="geometry" />
        </mxCell>
        <mxCell id="tXKb-f1KeoRgeHSG-G08-39" value="" style="html=1;points=[[0,0,0,0,5],[0,1,0,0,-5],[1,0,0,0,5],[1,1,0,0,-5]];perimeter=orthogonalPerimeter;outlineConnect=0;targetShapes=umlLifeline;portConstraint=eastwest;newEdgeStyle={&quot;curved&quot;:0,&quot;rounded&quot;:0};" parent="tXKb-f1KeoRgeHSG-G08-35" vertex="1">
          <mxGeometry x="45" y="270" width="10" height="160" as="geometry" />
        </mxCell>
        <mxCell id="tXKb-f1KeoRgeHSG-G08-40" value="DCP request presentation" style="html=1;verticalAlign=bottom;endArrow=block;curved=0;rounded=0;strokeWidth=3;" parent="1" source="0EgQpEXkiBXssmi2810E-3" target="tXKb-f1KeoRgeHSG-G08-39" edge="1">
          <mxGeometry x="0.1001" relative="1" as="geometry">
            <mxPoint x="-435" y="540" as="sourcePoint" />
            <Array as="points">
              <mxPoint x="-210" y="340" />
            </Array>
            <mxPoint x="1" as="offset" />
          </mxGeometry>
        </mxCell>
        <mxCell id="tXKb-f1KeoRgeHSG-G08-41" value="return VP with required VC" style="html=1;verticalAlign=bottom;endArrow=open;dashed=1;endSize=8;curved=0;rounded=0;exitX=1;exitY=1;exitDx=0;exitDy=-5;strokeWidth=3;strokeColor=#FF9933;" parent="1" source="tXKb-f1KeoRgeHSG-G08-39" target="0EgQpEXkiBXssmi2810E-3" edge="1">
          <mxGeometry x="-0.3134" y="5" relative="1" as="geometry">
            <mxPoint x="-435" y="610" as="targetPoint" />
            <mxPoint x="1" as="offset" />
          </mxGeometry>
        </mxCell>
        <mxCell id="tXKb-f1KeoRgeHSG-G08-42" value="Header SI Token2" style="text;html=1;align=center;verticalAlign=middle;resizable=0;points=[];autosize=1;strokeColor=none;fillColor=none;" parent="1" vertex="1">
          <mxGeometry x="-290" y="340" width="120" height="30" as="geometry" />
        </mxCell>
        <mxCell id="tXKb-f1KeoRgeHSG-G08-45" value="" style="html=1;points=[[0,0,0,0,5],[0,1,0,0,-5],[1,0,0,0,5],[1,1,0,0,-5]];perimeter=orthogonalPerimeter;outlineConnect=0;targetShapes=umlLifeline;portConstraint=eastwest;newEdgeStyle={&quot;curved&quot;:0,&quot;rounded&quot;:0};" parent="1" vertex="1">
          <mxGeometry x="-580" y="410" width="10" height="50" as="geometry" />
        </mxCell>
        <mxCell id="tXKb-f1KeoRgeHSG-G08-46" value="1- Check SI Token2 validity&lt;br&gt;2- Extract&amp;nbsp; &amp;amp; check accessToken&lt;br&gt;3- Check scopes&amp;nbsp;VC shareable&lt;br style=&quot;border-color: var(--border-color);&quot;&gt;vs VC required" style="html=1;align=left;spacingLeft=2;endArrow=block;rounded=0;edgeStyle=orthogonalEdgeStyle;curved=0;rounded=0;entryX=0;entryY=1;entryDx=0;entryDy=-5;entryPerimeter=0;exitX=0;exitY=0;exitDx=0;exitDy=5;exitPerimeter=0;" parent="1" target="tXKb-f1KeoRgeHSG-G08-45" edge="1">
          <mxGeometry y="-110" relative="1" as="geometry">
            <mxPoint x="-575" y="370" as="sourcePoint" />
            <Array as="points">
              <mxPoint x="-640" y="370" />
              <mxPoint x="-640" y="455" />
            </Array>
            <mxPoint as="offset" />
          </mxGeometry>
        </mxCell>
        <mxCell id="tXKb-f1KeoRgeHSG-G08-49" value="CONNECTOR&lt;br style=&quot;font-size: 13px;&quot;&gt;(PROVIDER)" style="shape=umlLifeline;perimeter=lifelinePerimeter;whiteSpace=wrap;html=1;container=1;dropTarget=0;collapsible=0;recursiveResize=0;outlineConnect=0;portConstraint=eastwest;newEdgeStyle={&quot;curved&quot;:0,&quot;rounded&quot;:0};fillColor=#FFC000;fontStyle=1;fontSize=13;size=50;" parent="1" vertex="1">
          <mxGeometry x="650" y="60" width="100" height="750" as="geometry" />
        </mxCell>
        <mxCell id="tXKb-f1KeoRgeHSG-G08-65" value="" style="html=1;points=[[0,0,0,0,5],[0,1,0,0,-5],[1,0,0,0,5],[1,1,0,0,-5]];perimeter=orthogonalPerimeter;outlineConnect=0;targetShapes=umlLifeline;portConstraint=eastwest;newEdgeStyle={&quot;curved&quot;:0,&quot;rounded&quot;:0};" parent="tXKb-f1KeoRgeHSG-G08-49" vertex="1">
          <mxGeometry x="45" y="650" width="10" height="80" as="geometry" />
        </mxCell>
        <mxCell id="tXKb-f1KeoRgeHSG-G08-69" value="" style="html=1;points=[[0,0,0,0,5],[0,1,0,0,-5],[1,0,0,0,5],[1,1,0,0,-5]];perimeter=orthogonalPerimeter;outlineConnect=0;targetShapes=umlLifeline;portConstraint=eastwest;newEdgeStyle={&quot;curved&quot;:0,&quot;rounded&quot;:0};" parent="tXKb-f1KeoRgeHSG-G08-49" vertex="1">
          <mxGeometry x="50" y="680" width="10" height="20" as="geometry" />
        </mxCell>
        <mxCell id="tXKb-f1KeoRgeHSG-G08-70" value="DSP business" style="html=1;align=left;spacingLeft=2;endArrow=block;rounded=0;edgeStyle=orthogonalEdgeStyle;curved=0;rounded=0;" parent="tXKb-f1KeoRgeHSG-G08-49" target="tXKb-f1KeoRgeHSG-G08-69" edge="1">
          <mxGeometry relative="1" as="geometry">
            <mxPoint x="55" y="660" as="sourcePoint" />
            <Array as="points">
              <mxPoint x="85" y="690" />
            </Array>
          </mxGeometry>
        </mxCell>
        <mxCell id="tXKb-f1KeoRgeHSG-G08-14" value="return OK / KO" style="html=1;verticalAlign=bottom;endArrow=open;dashed=1;endSize=8;curved=0;rounded=0;exitX=0;exitY=1;exitDx=0;exitDy=-5;strokeWidth=3;strokeColor=#FF9933;" parent="1" source="tXKb-f1KeoRgeHSG-G08-12" target="tXKb-f1KeoRgeHSG-G08-8" edge="1">
          <mxGeometry relative="1" as="geometry">
            <mxPoint x="-190" y="930" as="targetPoint" />
          </mxGeometry>
        </mxCell>
        <mxCell id="tXKb-f1KeoRgeHSG-G08-58" value="PEP&lt;br style=&quot;font-size: 14px;&quot;&gt;(PROVIDER)" style="shape=umlLifeline;perimeter=lifelinePerimeter;whiteSpace=wrap;html=1;container=1;dropTarget=0;collapsible=0;recursiveResize=0;outlineConnect=0;portConstraint=eastwest;newEdgeStyle={&quot;curved&quot;:0,&quot;rounded&quot;:0};fillColor=#FFC000;fontStyle=1;fontSize=14;size=50;" parent="1" vertex="1">
          <mxGeometry x="390" y="60" width="100" height="640" as="geometry" />
        </mxCell>
        <mxCell id="tXKb-f1KeoRgeHSG-G08-59" value="" style="html=1;points=[[0,0,0,0,5],[0,1,0,0,-5],[1,0,0,0,5],[1,1,0,0,-5]];perimeter=orthogonalPerimeter;outlineConnect=0;targetShapes=umlLifeline;portConstraint=eastwest;newEdgeStyle={&quot;curved&quot;:0,&quot;rounded&quot;:0};" parent="tXKb-f1KeoRgeHSG-G08-58" vertex="1">
          <mxGeometry x="45" y="530" width="10" height="80" as="geometry" />
        </mxCell>
        <mxCell id="tXKb-f1KeoRgeHSG-G08-63" value="" style="html=1;points=[[0,0,0,0,5],[0,1,0,0,-5],[1,0,0,0,5],[1,1,0,0,-5]];perimeter=orthogonalPerimeter;outlineConnect=0;targetShapes=umlLifeline;portConstraint=eastwest;newEdgeStyle={&quot;curved&quot;:0,&quot;rounded&quot;:0};" parent="tXKb-f1KeoRgeHSG-G08-58" vertex="1">
          <mxGeometry x="50" y="560" width="10" height="20" as="geometry" />
        </mxCell>
        <mxCell id="tXKb-f1KeoRgeHSG-G08-64" value="1- Retrieve participantAgent and policyId&lt;br&gt;2- Apply policy associated to policyId with&lt;br&gt;participantAgent (PDP call)" style="html=1;align=left;spacingLeft=2;endArrow=block;rounded=0;edgeStyle=orthogonalEdgeStyle;curved=0;rounded=0;" parent="tXKb-f1KeoRgeHSG-G08-58" target="tXKb-f1KeoRgeHSG-G08-63" edge="1">
          <mxGeometry relative="1" as="geometry">
            <mxPoint x="55" y="540" as="sourcePoint" />
            <Array as="points">
              <mxPoint x="85" y="570" />
            </Array>
          </mxGeometry>
        </mxCell>
        <mxCell id="tXKb-f1KeoRgeHSG-G08-60" value="forward DSP request" style="html=1;verticalAlign=bottom;endArrow=block;curved=0;rounded=0;entryX=0;entryY=0;entryDx=0;entryDy=5;strokeWidth=3;" parent="1" source="tXKb-f1KeoRgeHSG-G08-7" target="tXKb-f1KeoRgeHSG-G08-59" edge="1">
          <mxGeometry relative="1" as="geometry">
            <mxPoint x="405" y="585" as="sourcePoint" />
          </mxGeometry>
        </mxCell>
        <mxCell id="tXKb-f1KeoRgeHSG-G08-62" value="Header SI Token" style="text;html=1;align=center;verticalAlign=middle;resizable=0;points=[];autosize=1;strokeColor=none;fillColor=none;" parent="1" vertex="1">
          <mxGeometry x="177" y="590" width="110" height="30" as="geometry" />
        </mxCell>
        <mxCell id="tXKb-f1KeoRgeHSG-G08-61" value="return OK / KO" style="html=1;verticalAlign=bottom;endArrow=open;dashed=1;endSize=8;curved=0;rounded=0;exitX=0;exitY=1;exitDx=0;exitDy=-5;strokeWidth=3;strokeColor=#FF9933;" parent="1" source="tXKb-f1KeoRgeHSG-G08-59" target="tXKb-f1KeoRgeHSG-G08-7" edge="1">
          <mxGeometry relative="1" as="geometry">
            <mxPoint x="310" y="720" as="targetPoint" />
          </mxGeometry>
        </mxCell>
        <mxCell id="tXKb-f1KeoRgeHSG-G08-66" value="forward DSP request" style="html=1;verticalAlign=bottom;endArrow=block;curved=0;rounded=0;entryX=0;entryY=0;entryDx=0;entryDy=5;strokeWidth=3;" parent="1" source="tXKb-f1KeoRgeHSG-G08-7" target="tXKb-f1KeoRgeHSG-G08-65" edge="1">
          <mxGeometry relative="1" as="geometry">
            <mxPoint x="655" y="715" as="sourcePoint" />
          </mxGeometry>
        </mxCell>
        <mxCell id="tXKb-f1KeoRgeHSG-G08-68" value="Header SI Token" style="text;html=1;align=center;verticalAlign=middle;resizable=0;points=[];autosize=1;strokeColor=none;fillColor=none;" parent="1" vertex="1">
          <mxGeometry x="300" y="710" width="110" height="30" as="geometry" />
        </mxCell>
        <mxCell id="tXKb-f1KeoRgeHSG-G08-67" value="DSP response" style="html=1;verticalAlign=bottom;endArrow=open;dashed=1;endSize=8;curved=0;rounded=0;exitX=0;exitY=1;exitDx=0;exitDy=-5;strokeWidth=3;strokeColor=#FF9933;" parent="1" source="tXKb-f1KeoRgeHSG-G08-65" target="tXKb-f1KeoRgeHSG-G08-7" edge="1">
          <mxGeometry relative="1" as="geometry">
            <mxPoint x="655" y="785" as="targetPoint" />
          </mxGeometry>
        </mxCell>
        <mxCell id="tXKb-f1KeoRgeHSG-G08-10" value="return" style="html=1;verticalAlign=bottom;endArrow=open;dashed=1;endSize=8;curved=0;rounded=0;exitX=0;exitY=1;exitDx=0;exitDy=-5;strokeColor=#FF9933;strokeWidth=3;" parent="1" source="tXKb-f1KeoRgeHSG-G08-8" target="0EgQpEXkiBXssmi2810E-1" edge="1">
          <mxGeometry relative="1" as="geometry">
            <mxPoint x="-270" y="880" as="targetPoint" />
          </mxGeometry>
        </mxCell>
        <mxCell id="tXKb-f1KeoRgeHSG-G08-77" value="start DSP context (catalog, contract...))" style="html=1;verticalAlign=bottom;endArrow=block;curved=0;rounded=0;entryX=0;entryY=0;entryDx=0;entryDy=5;strokeWidth=3;" parent="1" source="0EgQpEXkiBXssmi2810E-2" target="tXKb-f1KeoRgeHSG-G08-76" edge="1">
          <mxGeometry relative="1" as="geometry">
            <mxPoint x="-520" y="151" as="sourcePoint" />
          </mxGeometry>
        </mxCell>
        <mxCell id="tXKb-f1KeoRgeHSG-G08-78" value="return" style="html=1;verticalAlign=bottom;endArrow=open;dashed=1;endSize=8;curved=0;rounded=0;exitX=0;exitY=1;exitDx=0;exitDy=-5;strokeWidth=3;strokeColor=#FF9933;" parent="1" source="tXKb-f1KeoRgeHSG-G08-76" target="0EgQpEXkiBXssmi2810E-2" edge="1">
          <mxGeometry relative="1" as="geometry">
            <mxPoint x="-520" y="221" as="targetPoint" />
          </mxGeometry>
        </mxCell>
      </root>
    </mxGraphModel>
  </diagram>
  <diagram id="b_zXyCmGQKHzeDApZTqu" name="Page-2">
    <mxGraphModel dx="2261" dy="839" grid="1" gridSize="10" guides="1" tooltips="1" connect="1" arrows="1" fold="1" page="1" pageScale="1" pageWidth="827" pageHeight="1169" math="0" shadow="0">
      <root>
        <mxCell id="0" />
        <mxCell id="1" parent="0" />
        <mxCell id="3_nuJzFFmOV05L7b0hrJ-3" value="" style="rounded=1;whiteSpace=wrap;html=1;fillColor=none;dashed=1;dashPattern=8 8;strokeWidth=2;" parent="1" vertex="1">
          <mxGeometry x="-470" y="300" width="710" height="430" as="geometry" />
        </mxCell>
        <mxCell id="Athtwj2RMP5gLUJdKQNK-1" value="&lt;b&gt;&lt;font style=&quot;font-size: 15px;&quot;&gt;IDENTITY HUB&lt;br&gt;(consumer)&lt;br&gt;&lt;/font&gt;&lt;/b&gt;" style="rounded=1;whiteSpace=wrap;html=1;" parent="1" vertex="1">
          <mxGeometry x="-720" y="605" width="145.82" height="60" as="geometry" />
        </mxCell>
        <mxCell id="3_nuJzFFmOV05L7b0hrJ-4" value="&lt;b&gt;&lt;font style=&quot;font-size: 15px;&quot;&gt;GATEWAY&lt;br&gt;(provider)&lt;br&gt;&lt;/font&gt;&lt;/b&gt;" style="rounded=1;whiteSpace=wrap;html=1;verticalAlign=top;" parent="1" vertex="1">
          <mxGeometry x="-420" y="320" width="180.69" height="70" as="geometry" />
        </mxCell>
        <mxCell id="NkCfYJ3EP9OncJtPPx0G-1" value="" style="rounded=1;whiteSpace=wrap;html=1;fillColor=none;strokeColor=#b85450;strokeWidth=4;" vertex="1" parent="1">
          <mxGeometry x="-437.18" y="310" width="110" height="289" as="geometry" />
        </mxCell>
        <mxCell id="3_nuJzFFmOV05L7b0hrJ-5" style="edgeStyle=orthogonalEdgeStyle;rounded=0;orthogonalLoop=1;jettySize=auto;html=1;entryX=0.5;entryY=0;entryDx=0;entryDy=0;exitX=1;exitY=0.25;exitDx=0;exitDy=0;startArrow=none;startFill=0;strokeWidth=3;" parent="1" source="3_nuJzFFmOV05L7b0hrJ-6" target="3_nuJzFFmOV05L7b0hrJ-10" edge="1">
          <mxGeometry relative="1" as="geometry">
            <mxPoint x="-386.31" y="380" as="targetPoint" />
            <Array as="points">
              <mxPoint x="-453.31" y="370" />
              <mxPoint x="-382.31" y="370" />
            </Array>
          </mxGeometry>
        </mxCell>
        <mxCell id="3_nuJzFFmOV05L7b0hrJ-6" value="&lt;b&gt;&lt;font style=&quot;font-size: 15px;&quot;&gt;CONNECTOR&lt;br&gt;(consumer)&lt;br&gt;&lt;/font&gt;&lt;/b&gt;" style="rounded=1;whiteSpace=wrap;html=1;" parent="1" vertex="1">
          <mxGeometry x="-720" y="355" width="145.82" height="60" as="geometry" />
        </mxCell>
        <mxCell id="3_nuJzFFmOV05L7b0hrJ-7" value="get participantAgent&lt;br&gt;by SItoken" style="rounded=0;orthogonalLoop=1;jettySize=auto;html=1;entryX=0.5;entryY=0;entryDx=0;entryDy=0;strokeWidth=2;" parent="1" source="3_nuJzFFmOV05L7b0hrJ-8" target="3_nuJzFFmOV05L7b0hrJ-28" edge="1">
          <mxGeometry relative="1" as="geometry" />
        </mxCell>
        <mxCell id="3_nuJzFFmOV05L7b0hrJ-8" value="&lt;b&gt;&lt;font style=&quot;font-size: 15px;&quot;&gt;CONNECTOR&lt;br&gt;(provider)&lt;br&gt;&lt;/font&gt;&lt;/b&gt;" style="rounded=1;whiteSpace=wrap;html=1;" parent="1" vertex="1">
          <mxGeometry x="47.34" y="350" width="160.94" height="60" as="geometry" />
        </mxCell>
        <mxCell id="3_nuJzFFmOV05L7b0hrJ-9" style="edgeStyle=orthogonalEdgeStyle;rounded=0;orthogonalLoop=1;jettySize=auto;html=1;entryX=0.143;entryY=-0.012;entryDx=0;entryDy=0;strokeWidth=3;entryPerimeter=0;exitX=0.75;exitY=0;exitDx=0;exitDy=0;" parent="1" source="3_nuJzFFmOV05L7b0hrJ-10" target="3_nuJzFFmOV05L7b0hrJ-14" edge="1">
          <mxGeometry relative="1" as="geometry">
            <Array as="points">
              <mxPoint x="-360.31" y="370" />
              <mxPoint x="-300.31" y="370" />
            </Array>
          </mxGeometry>
        </mxCell>
        <mxCell id="Athtwj2RMP5gLUJdKQNK-2" value="request presentation" style="edgeStyle=orthogonalEdgeStyle;rounded=0;orthogonalLoop=1;jettySize=auto;html=1;entryX=1;entryY=0.5;entryDx=0;entryDy=0;strokeWidth=3;" parent="1" source="3_nuJzFFmOV05L7b0hrJ-10" target="Athtwj2RMP5gLUJdKQNK-1" edge="1">
          <mxGeometry relative="1" as="geometry">
            <Array as="points">
              <mxPoint x="-520" y="535" />
              <mxPoint x="-520" y="635" />
            </Array>
          </mxGeometry>
        </mxCell>
        <mxCell id="3_nuJzFFmOV05L7b0hrJ-10" value="&lt;b&gt;&lt;font style=&quot;font-size: 15px;&quot;&gt;Verifier&lt;br&gt;(DCP Verif.)&lt;br&gt;&lt;/font&gt;&lt;/b&gt;" style="rounded=1;whiteSpace=wrap;html=1;verticalAlign=top;" parent="1" vertex="1">
          <mxGeometry x="-425.05" y="500" width="85.74" height="70" as="geometry" />
        </mxCell>
        <mxCell id="3_nuJzFFmOV05L7b0hrJ-11" value="DSP&lt;br&gt;with SItoken" style="edgeStyle=orthogonalEdgeStyle;rounded=0;orthogonalLoop=1;jettySize=auto;html=1;entryX=0.002;entryY=0.383;entryDx=0;entryDy=0;entryPerimeter=0;strokeWidth=3;exitX=0.75;exitY=0;exitDx=0;exitDy=0;labelBackgroundColor=default;" parent="1" source="3_nuJzFFmOV05L7b0hrJ-14" target="3_nuJzFFmOV05L7b0hrJ-8" edge="1">
          <mxGeometry x="0.1812" y="3" relative="1" as="geometry">
            <Array as="points">
              <mxPoint x="-259.31" y="490" />
              <mxPoint x="-259.31" y="373" />
            </Array>
            <mxPoint as="offset" />
          </mxGeometry>
        </mxCell>
        <mxCell id="3_nuJzFFmOV05L7b0hrJ-12" value="save participantAgent &lt;br&gt;and policyIds&amp;nbsp;&lt;br&gt;by SItoken" style="edgeStyle=orthogonalEdgeStyle;rounded=0;orthogonalLoop=1;jettySize=auto;html=1;entryX=1;entryY=1;entryDx=0;entryDy=0;exitX=0.75;exitY=1;exitDx=0;exitDy=0;strokeWidth=3;" parent="1" source="3_nuJzFFmOV05L7b0hrJ-10" target="EvHn94h7MORutzxhYY-e-1" edge="1">
          <mxGeometry relative="1" as="geometry">
            <Array as="points">
              <mxPoint x="-361" y="670" />
              <mxPoint x="150" y="670" />
            </Array>
          </mxGeometry>
        </mxCell>
        <mxCell id="3_nuJzFFmOV05L7b0hrJ-13" value="validate policy (policyId)&lt;br&gt;and participantAgent (vc)" style="edgeStyle=orthogonalEdgeStyle;rounded=0;orthogonalLoop=1;jettySize=auto;html=1;entryX=0;entryY=0.5;entryDx=0;entryDy=0;strokeWidth=3;exitX=0.5;exitY=1;exitDx=0;exitDy=0;" parent="1" source="3_nuJzFFmOV05L7b0hrJ-14" target="3_nuJzFFmOV05L7b0hrJ-29" edge="1">
          <mxGeometry x="0.159" y="-2" relative="1" as="geometry">
            <Array as="points">
              <mxPoint x="-276" y="590" />
              <mxPoint x="-276" y="608" />
            </Array>
            <mxPoint y="1" as="offset" />
          </mxGeometry>
        </mxCell>
        <mxCell id="3_nuJzFFmOV05L7b0hrJ-14" value="&lt;b&gt;&lt;font style=&quot;font-size: 15px;&quot;&gt;PEP&lt;br&gt;&lt;/font&gt;&lt;/b&gt;" style="rounded=1;whiteSpace=wrap;html=1;verticalAlign=top;" parent="1" vertex="1">
          <mxGeometry x="-310.17" y="500" width="68.81" height="70" as="geometry" />
        </mxCell>
        <mxCell id="3_nuJzFFmOV05L7b0hrJ-15" value="implémentation du moteur de policy gérant seulement le &lt;b&gt;&lt;i&gt;PolicyMonitorContext &lt;/i&gt;&lt;/b&gt;(appel le PDP directement vs PEP)&amp;nbsp;&lt;br&gt;Modification de&amp;nbsp;&lt;i style=&quot;font-weight: bold;&quot;&gt;CoreServicesExtension &lt;/i&gt;permettant de rendre conditionnel l&#39;injection du moteur de policy (cf&amp;nbsp;&lt;b style=&quot;border-color: var(--border-color); font-style: italic;&quot;&gt;ProtocolTokenValidator)&lt;/b&gt;" style="shape=note;whiteSpace=wrap;html=1;backgroundOutline=1;fontColor=#000000;darkOpacity=0.05;fillColor=#FFF9B2;strokeColor=none;fillStyle=solid;direction=west;gradientDirection=north;gradientColor=#FFF2A1;shadow=1;size=20;pointerEvents=1;align=left;" parent="1" vertex="1">
          <mxGeometry x="2.25" y="110" width="251.11" height="90" as="geometry" />
        </mxCell>
        <mxCell id="3_nuJzFFmOV05L7b0hrJ-19" style="rounded=0;orthogonalLoop=1;jettySize=auto;html=1;dashed=1;entryX=0.5;entryY=0;entryDx=0;entryDy=0;exitX=0.5;exitY=0;exitDx=0;exitDy=0;exitPerimeter=0;" parent="1" source="3_nuJzFFmOV05L7b0hrJ-15" target="3_nuJzFFmOV05L7b0hrJ-8" edge="1">
          <mxGeometry relative="1" as="geometry">
            <mxPoint x="160.81" y="540" as="targetPoint" />
            <mxPoint x="164.45333333333343" y="260" as="sourcePoint" />
          </mxGeometry>
        </mxCell>
        <mxCell id="3_nuJzFFmOV05L7b0hrJ-20" value="nouvelle implémentation&amp;nbsp;&lt;br&gt;RemoteMessageDispatcher" style="shape=note;whiteSpace=wrap;html=1;backgroundOutline=1;fontColor=#000000;darkOpacity=0.05;fillColor=#FFF9B2;strokeColor=none;fillStyle=solid;direction=west;gradientDirection=north;gradientColor=#FFF2A1;shadow=1;size=20;pointerEvents=1;align=left;" parent="1" vertex="1">
          <mxGeometry x="-720" y="220" width="148.2" height="70" as="geometry" />
        </mxCell>
        <mxCell id="3_nuJzFFmOV05L7b0hrJ-21" style="rounded=0;orthogonalLoop=1;jettySize=auto;html=1;entryX=0.456;entryY=0.022;entryDx=0;entryDy=0;entryPerimeter=0;dashed=1;" parent="1" source="3_nuJzFFmOV05L7b0hrJ-20" target="3_nuJzFFmOV05L7b0hrJ-6" edge="1">
          <mxGeometry relative="1" as="geometry" />
        </mxCell>
        <mxCell id="3_nuJzFFmOV05L7b0hrJ-22" style="rounded=0;orthogonalLoop=1;jettySize=auto;html=1;entryX=0.5;entryY=1;entryDx=0;entryDy=0;dashed=1;exitX=0.775;exitY=0;exitDx=0;exitDy=0;exitPerimeter=0;" parent="1" source="3_nuJzFFmOV05L7b0hrJ-23" target="3_nuJzFFmOV05L7b0hrJ-8" edge="1">
          <mxGeometry relative="1" as="geometry">
            <mxPoint x="162.09000000000012" y="354.03859352726886" as="sourcePoint" />
          </mxGeometry>
        </mxCell>
        <mxCell id="3_nuJzFFmOV05L7b0hrJ-23" value="Implémentation&amp;nbsp;&lt;b style=&quot;font-style: italic;&quot;&gt;ProtocolTokenValidatorImpl&amp;nbsp;&lt;/b&gt;&lt;br&gt;revient à aller chercher les infos provenant des VCs i.e &lt;b&gt;participantAgent&lt;/b&gt;" style="shape=note;whiteSpace=wrap;html=1;backgroundOutline=1;fontColor=#000000;darkOpacity=0.05;fillColor=#FFF9B2;strokeColor=none;fillStyle=solid;direction=west;gradientDirection=north;gradientColor=#FFF2A1;shadow=1;size=20;pointerEvents=1;align=left;" parent="1" vertex="1">
          <mxGeometry x="307.59000000000003" y="420" width="253.35" height="90" as="geometry" />
        </mxCell>
        <mxCell id="3_nuJzFFmOV05L7b0hrJ-28" value="&lt;b&gt;&lt;font style=&quot;font-size: 15px;&quot;&gt;CACHE&lt;br&gt;&lt;/font&gt;&lt;/b&gt;" style="rounded=1;whiteSpace=wrap;html=1;verticalAlign=top;" parent="1" vertex="1">
          <mxGeometry x="90.12" y="470" width="77.22" height="60" as="geometry" />
        </mxCell>
        <mxCell id="4A_rCCHhxW37e8GHwpuX-2" value="pull policies&lt;br&gt;(by polling)" style="edgeStyle=orthogonalEdgeStyle;rounded=0;orthogonalLoop=1;jettySize=auto;html=1;entryX=0;entryY=0.5;entryDx=0;entryDy=0;strokeWidth=3;" parent="1" source="3_nuJzFFmOV05L7b0hrJ-29" target="4A_rCCHhxW37e8GHwpuX-1" edge="1">
          <mxGeometry x="-0.0448" y="-2" relative="1" as="geometry">
            <mxPoint as="offset" />
          </mxGeometry>
        </mxCell>
        <mxCell id="3_nuJzFFmOV05L7b0hrJ-29" value="&lt;b&gt;&lt;font style=&quot;font-size: 15px;&quot;&gt;PDP&lt;br&gt;&lt;/font&gt;&lt;/b&gt;" style="rounded=1;whiteSpace=wrap;html=1;verticalAlign=top;" parent="1" vertex="1">
          <mxGeometry x="-117.64000000000001" y="580" width="71.93" height="55" as="geometry" />
        </mxCell>
        <mxCell id="3_nuJzFFmOV05L7b0hrJ-30" value="Envoie au &lt;b&gt;PDP &lt;/b&gt;pour application des policies" style="shape=note;whiteSpace=wrap;html=1;backgroundOutline=1;fontColor=#000000;darkOpacity=0.05;fillColor=#FFF9B2;strokeColor=none;fillStyle=solid;direction=west;gradientDirection=north;gradientColor=#FFF2A1;shadow=1;size=20;pointerEvents=1;align=left;" parent="1" vertex="1">
          <mxGeometry x="-528.91" y="770" width="132.73" height="70" as="geometry" />
        </mxCell>
        <mxCell id="3_nuJzFFmOV05L7b0hrJ-31" style="rounded=0;orthogonalLoop=1;jettySize=auto;html=1;entryX=0.157;entryY=0.975;entryDx=0;entryDy=0;dashed=1;exitX=0;exitY=0.5;exitDx=0;exitDy=0;exitPerimeter=0;entryPerimeter=0;" parent="1" source="3_nuJzFFmOV05L7b0hrJ-30" target="3_nuJzFFmOV05L7b0hrJ-14" edge="1">
          <mxGeometry relative="1" as="geometry">
            <mxPoint x="-409.31" y="566" as="sourcePoint" />
            <mxPoint x="-366.31" y="555" as="targetPoint" />
            <Array as="points">
              <mxPoint x="-319.31" y="615" />
            </Array>
          </mxGeometry>
        </mxCell>
        <mxCell id="3_nuJzFFmOV05L7b0hrJ-54" value="get participantAgent&lt;br&gt;and policyIds&lt;br&gt;by SItoken" style="rounded=0;orthogonalLoop=1;jettySize=auto;html=1;exitX=1;exitY=0.25;exitDx=0;exitDy=0;strokeWidth=3;entryX=0.012;entryY=0.8;entryDx=0;entryDy=0;entryPerimeter=0;" parent="1" source="3_nuJzFFmOV05L7b0hrJ-14" target="3_nuJzFFmOV05L7b0hrJ-28" edge="1">
          <mxGeometry relative="1" as="geometry">
            <mxPoint x="-85.31" y="419" as="sourcePoint" />
            <mxPoint x="-29.310000000000002" y="518" as="targetPoint" />
          </mxGeometry>
        </mxCell>
        <mxCell id="3_nuJzFFmOV05L7b0hrJ-55" style="rounded=0;orthogonalLoop=1;jettySize=auto;html=1;dashed=1;" parent="1" source="3_nuJzFFmOV05L7b0hrJ-56" target="3_nuJzFFmOV05L7b0hrJ-10" edge="1">
          <mxGeometry relative="1" as="geometry" />
        </mxCell>
        <mxCell id="3_nuJzFFmOV05L7b0hrJ-56" value="Brique AUTHZ implémentée par du DCP. pluggable/unpluggable" style="shape=note;whiteSpace=wrap;html=1;backgroundOutline=1;fontColor=#000000;darkOpacity=0.05;fillColor=#FFF9B2;strokeColor=none;fillStyle=solid;direction=west;gradientDirection=north;gradientColor=#FFF2A1;shadow=1;size=20;pointerEvents=1;align=left;" parent="1" vertex="1">
          <mxGeometry x="-611.31" y="430" width="132.73" height="70" as="geometry" />
        </mxCell>
        <mxCell id="3_nuJzFFmOV05L7b0hrJ-59" value="&amp;nbsp;get policy Object and its id&amp;nbsp; from business Object&amp;nbsp;&lt;br&gt;(mandatory scopes)" style="edgeStyle=orthogonalEdgeStyle;rounded=0;orthogonalLoop=1;jettySize=auto;html=1;strokeWidth=3;jumpStyle=arc;exitX=0.25;exitY=1;exitDx=0;exitDy=0;" parent="1" source="3_nuJzFFmOV05L7b0hrJ-10" target="3_nuJzFFmOV05L7b0hrJ-8" edge="1">
          <mxGeometry x="-0.2585" relative="1" as="geometry">
            <Array as="points">
              <mxPoint x="-404" y="710" />
              <mxPoint x="192" y="710" />
            </Array>
            <mxPoint as="offset" />
            <mxPoint x="-264.5099999999999" y="570" as="sourcePoint" />
          </mxGeometry>
        </mxCell>
        <mxCell id="3_nuJzFFmOV05L7b0hrJ-86" value="" style="shape=image;verticalLabelPosition=bottom;labelBackgroundColor=default;verticalAlign=top;aspect=fixed;imageAspect=0;image=data:image/png,iVBORw0KGgoAAAANSUhEUgAAAMgAAADICAYAAACtWK6eAAAdI0lEQVR4nOy9C3xU1bn//XvWJIGAaK1We/BW70cUtVrrwSteaotXVKBELkLCRUECCYSr2lFACZeEiwiEJMgdgkoBixZowdYj7anWCoh99VShtbWveGxF7pm9nv9n9szsy8xkEmBm9pB5vn62e/aePbOfFfZvnvWs9ay1FARBaBARiCAkQAQiCAkQgQhCAkQggpAAEYggJEAEIggJEIEIQgJEIIKQABGIICRABCIICRCBCEICRCCCkAARiCAkQAQiCAkQgQhCAkQggpAAEYggJEAEIggJEIEIQgJEIIKQABGIICRABCIICRCBCEICRCCCkAARiCAkQAQiCAkQgQhCAnK8NkAIMe+da1vtP9SyHStqx1BtwfrvPujtJTe+/SevbctmyGsDBGDq1pvGE9OT8d/l32rKebqsw5Yt6bZLEIF4SsVbt94MpWsYuDj+FdY/D4PwTOl//eZZInAaTcx6RCAeUfH2Le0Z/H7sv4F9yDFSoMUjbnyzd1oMFEwkSPcIBleH1EBwbyFhuMVhvddr6tu3DPXI5KxEPIgHTHv7lkIANZHjOJ4i5jNsn/vSR4fPLb1h68HUWilAPIg3MPBMxEs04Cmc14KZwi/M7fQAt7w73TZnKyKQNFP525suAOPs0FFs9QpwaMEURrQ3MY/vSqvRWYz0g6QZTb7znMemA4kRAUwhxG2uMpVDl6bKPsGNCCTdKKXA2o4pLBXEVq1C/4sbJgZSa6QQQQSSZnS98Ql8kZqtw0vE8SLcQBsKM21LnYWCE4lB0kzZrb/5FCCDLXHExhmh9yKBOcVsRPSeR+ZnHSIQD2BWNZGHPRiIRwRhvmYV3gfPKdd7OrT938FA/Wqvy5AtiEA8IDdgjALor844xCkUq1Urcp4d59k3xH/bln1elyFbkI5Cj5j02x9fRWz8joGWsATgJCyQyOsQW8d2fOOGdNuazYgH8YjRN//yfQL9hJm+dnoNy2Ow25uEz13g39xRGlbSiAjEQ0besvHNQCDnWjAt0qygtQrHIO5NW7GJOjMXrbt7bXc2IVWsDKH8rfvbGPX1dzBoOgPnRapYNlYi4/an7njtSq/szDZEIBnGhM33bWDmH7kF4u5VZ8btP7tz7WZvLMwupIqVYZid7KyAqOZfu1lYgaBKvbYzWxCBZBia1RlmPBKJQXTotX2OgrHKPeM3PniZ17ZmAyKQDIPZd6bdkqXMzsKQ91DWxiAKQA3z2tZsQASSSZj1KfVdZl9QKIi0bOnIa6dnMdSj/je6fttrk5s7IpAM4qlfFrTTrCjiQUI5WqqBPhLVIgDfYK9tbu6IQDIIhr4z5CV8ltfgiOew+kh8dh+JVoOHrO/Uwmu7mzMikAyCWf3I6SUQDspDnsQ5qUP4PHDmKXRqT6/tbs6IQDIK1dH8J4kE487MXrs33VXd0lqafFOJCCRDGLO+Z2etVWut3QG5dqWcxK1utRu7tncnr+1vrohAMgTWOX3MBx72OJBQlcps6v2UofbAVd2yvYsmEi+SIiTVJAMYuabwUij82WznJUTlYDFAPJVBe4nxrH0+KleL6Ory+2rfT6PZWYF4kAxAKzUmFFuoOAOnFBTxfIPz5gB0yO40dKfCQ2KRlCAexGNK1g6+XHH9jnD7VMiDuF3Im1Pur+4YfFG2puhFAh6PvBEUEbF9db2h2k5/uOrztBagmSMexGOU1s+7Yg/HuPTQBA1qeuRan8+sarEzgZFhJzLmEp7wtjTND/EgHjJs9ROdCLze6TnsxHZzv3PaA/OucGa7l/18wBpm3B86cs+txcBXR1rmtZ1196zDaS5Ks0U8iEcMWT/kZGaqdc9o4pzVxOwp90dPsKg1poRauZRraG7Yk3y7xUFDOg6TiAjEKw76qthMTFRuUVib73cVD81ZFf2xaQ9VvcVa/YF1VCeijvSVoMSbAjVPRCAeMOTl0mKAfhpqgXKIIuJNoGCQajCeYKapkRYuZ99I2BNdXvLKkDvTW6LmiwgkzTy+quxmDTWDHQOgIuM+HN6kZuaDM99t6Dsqu8yuY6bPWDsFFvQi4WMDMlYkSYhA0siQV0aeTVBrrGRER6+51Sql6R/6IDfap8GMWdHxix20090lr5RckIYiNXtEIGliUJ3/pHojZwMznRrxGDoq9tChalbfWT1n7W3s+1pw63nM6kC8aYKYiYxA4yITGkcEkgb6LPC3NLh+LTMuY2fvd1gckfiBgOmzulZuaMp3lncr/1prVQu357AnnNNUOHjh4NNSXLRmjwgkxXSt8+fl5hvrGHSbK86INNXagfrG0z44efjRfHeOgUpmYrsVixyp8pSvcvNkxOFxIgJJMadovMxQd1qBtN1n4RwUtbPVIf2g3+/XR/PdlT0qPwHoF+4Z4iPrHpqtXEOC3itlhcsCZJ7XFDGgbtIpAaP+dYbuEHpYdTgDN7y3VyL8F5jvmdp76v5juY/BmE6s7jV74dm9ziEYp5+U+00fAHOTWLSsQjxICuhTN/m7RwLG2wzq4MqZssZ3OH7xFd8zt2DSrmO91+yCil8B2BG6R2TxT9jZvqxGJLd02YUIJMn0XjblSg4Y74KonT34yRFAuzv2CuZ1e37r8d6TWU2GI2nRXlvE9CsXDl444sGkFC4LEYEkkd5Ly29j6P9mqLZWwGyJJMpzsHp8fvfxK5Jx3++0bbWcWf3dPX7dMW6EfGOScZ9sRASSJB5ZWjlAk+/XgDqJraoUHM259i+81mrc/AJ/0uIC/23+ADOmO1Pf7YDdvPd1g2pHycI7x4AIJAkULJtRA/A8ZxWKHYtxWn0fUNBQo2p7PP1c0o1okT8XWn1tzXzi9CDBTSlJYjwGZDzIcdB10azzlY/XKOj2IQlouKXhOt5P4IcX9Bj3y1TZ8/jC0cFYpMw5KJHtJRQ0WF88p3DSJ6m6f3NEPMgx8tOlsx9SPrUNoPYxLVOOrNyQTNQnIPwgleII4gvo6bCSFkN7y4NoUsS+oam8f3NEPMhR0nnBgm/l5Bx+gYh7RDwEke0xnBWrUN8Ev5GfZ3Sv6jb663TY9/iCcS8BeNS94k7IoRCw3wgEzqoaWJ4WW5oD0lF4FHRZPL8jKLAUoLahBy7oIbRrJaioWXueX9Jj+DhTQWmCAlSufQ6BOO7MjNbKlzcQwOR02XOiI1WsJtBpyZKTOy+unadJbdZAWzvohmvOXNgB+SFi1WVpz+Fj0ymOIC/2n/AhQButfhFrffWwX9MoTqc9JzoikEa4f8nCnnkIfAyiAZHmW8TEGnAul7abA/oHS3oNe8Urm1n7Kqw4xBGThOORswbOfUrGrTcREUgDdFqx4sL7liz5NUMtZqgzosUQwkrniDyM61sGjKuX9yn9wEvb5/XzvwHGTvPAWdWypy0d5aV9JxISpEfRccGClvm5+U8qcBlB5zmDbxXZcyjp1grSoQ8Q8/C63oMyJilwwDx/PxDPj4lFwpm+zPjR/EH+Td5ZeGIgHsTBT5a+/OOWuW0+ItA4BuUhpqPPmXiIyO/Le4bi9pkkjiAtDn97MZi+gqMH35mnpQBJYmwC4kEA3Llw7bnkC7yowPc4O/ice9tz2J6EoJ95tVd/v9f2N0T/uc8+TczPmAdxWrWg6cqqIU9v98S4E4Ssbua9sWZNm1b5agxYDyOm/ODTw+HGWg4PgmVrnAXbKzyBPlFE3V/tWfQHr8uQCJ2jX1D1NBaM0DJtrr4RsywjzD4ToUGytop129LXi1u0zNmlGWMYlG8H33bzrZWm7jrGLOPAkfav9uyb0eIIUtPP/xU0LY+pZmmKjNfqXTjL39ZrOzOZrPMgty7Z8CBITwL4Evc7Ee8Q6e6zxUGhStZ/K0MPXNunj6ctVEeLVpipDPSxTlhVrVAZlVZDAEg6fANkRwziZ3XzxVu6AbqMoK8JxRaOOIOdcYUj9mAj+Af6DDBGru/1yHKvi3Gs9Hth/Jtg3BJ8TTGtWvQV5QfOqRroP+CdhZlLs/YgHerezkd9oAjqN6XMOB/mA0Ixvd9wRBwWjMNMqMjZ32rCuoH3ndAPD4Gmc1ggHJWjBeDbfMAXjEPmeGVfJpNxHqRd3QcnGZzfWTHdwNC3EPHlAH9JhM0E1H3Q7eKXG/uOa5e9c3oOHSkG8xAF/S2Xx2BtjcwIeY/YFivFep1PYdgvejzcbFLD+80cvxtM55oHsSL5qLrkyUs9Mi2jySiBXFy36x7FmAvw2TFZseYVZnVoNzQe++CR/3wj+vPXL/nd2UaObySx7k/QLUNVJ8NqmrUFYgsm1HSrw+P/jB2KqXRDrwc2elH+VFI0fWIJARXmQZzOQ9a4t6Zs3C88MzBDyZhWrEtW7FqkGK8BOLuhayj0v/NI6dfbr/hgdOT8Vcv+dPnVy99bHPDl/A2MIQxYc0ExoqbCsb/JhukvTFSwqWfn9s1RHEFa5NbPB/Dv+D3rABHJhNdxyAgPcsnKXYMBvABnT4MjBdBugA0H0uFqEYhH+aBvBOv77UDbrkIFfxaVKxiPeArr/OeK+dlf9/xJRvWCp4p+Fc9NZGBsbKAeuYKvqi4bt80b6zITzz3IBXV/ORdEU4/ls8QoZ6b7I8d2+rl1Rcxx+Fn4N5jHHs5tc2G2iAPmVKW5M8A4Epk7K9yvE8Kc4EGVeWth5uG5QHIpdwjCVaJ47qzhKlK0EOA6diWx2u8fBGGy74jv/Dd7/vj5rd1uOJi0gpwAzC0r+wLMi8KO2JzskUPxR3gpaXTvV17eYBU3G/FcIMzcIepMI5+gBq5ukmhyoXGTztPDOi7beFPHzZubdTN3PNjImWr6XrYHUkUSGM1mf61lQJUDz2OQS+p2HzQ9CLt9hdMH2HGIDsmAo5IIw519kdYp9znDEZOEWrUcHYT7wfymj4yNCvyrTT3vyYrEvaLJk1aDuXMDAfvX7FPn1I4a9Y1nBmYQnv6CXlD3l1PgaHE6GjhK3fZx1KhwqyMw6tcgdElrIr6bQXdrZty++LU9CnqT0rwpRx9ev75vt38eU8EyHKUxRQOdzYOo1BMwTkE9igBM987CzMFTD3J23d/yW0GHeqnZGWI37kHg6NyzvUNkHioddU433kFoHUdSTMz3/gDgZZ8PK9f3eHi3Z3+oFFD03KTfA/iheRCbCr+r5snR53tkWkaRCVWszwCc1TSBsPUwu/Om7HyqYxIIO3vSozoT2brv78HGyhwDK9cWFfzDwz9ZUiicOKkbEVbGrWax2S/StfqpUY1mLTR3vBfIyl3LQdQ9WiB221OcPhG2xeFjfS+T8TGBL1Osg7+I3yfwFYr1OY7+DssrNF0gnOAa/RYxXs45outeHdjrc0//gMdB34nlu4n5XFMQdqAemUfr7dqfjbrRYxM9x3OBXLRi1zVK0buNC8TZUWj9qm/b3r3dVfG+t+OCzS3357durzjwQ2J9G7G+ncCnxggkpqoVp9rlbBTgyIIG1vnfKsbiQCBn9bqBj3yZvr/c8VM4oXwYGJWIzvINv1aG/uH88WMyftxLKvFcIEEuXbV7BjOK7ZYs5xCleJ4k9KD6wO23dW+3o6n36bD8ze/7DH0DMXcgMjoQ+AJn1QvOOCSeQKwht6HFN0JCg2UPgTco0lWvFBV5NuXP0TDI7z/pkMr/zAzM4ahewWr1WFHzzKgCr+30kowQCEJVrY0A7owVCOKknWiQ1g/tKGi3+njuecfCTacFfPW3KObOCvpuMJ8et0rF7thHscMOt0DMa0G8CxoV+YdaLFxa3LPRJZ29pPCZ8kkARjk9h5WfxYBP8XlVz4z+q5c2eknGCCTIpXW7h4L5ZwCfiqj+cCuzl/ljn6JHt3e7+LhXZormjiVrr1ManQDjXmJcFxWkOzyJq4rlOI6Kk5gPAbrGF1CzVw7u/2Gy7U0GAyZW/kfgSP0/GkpiBPP02omjsnbphIwSSJArF/2z9ZEWhx5jcDcCfw/AGeFf6/9hosV/7nbRC+mw445la87Mqw90Y+YHCPqOiKdokkAsbxJpkjYftF+BjZmrBg1amw77j4ZCf3k1NBU10KJ1qIU22s6ZNOZfHproGRknkEyk05IlJ9ORnIeJ8FNi/jGFJ6x2VcGixBGJpyICcYjorwDNyAkcqV5aXJwR1a8+/qn/qQwd8nDxqlqax9ZMGvW8dxZ6hwjkKLmndukFChhAzP2I+TRXqxo7YiXnOUaMZwHzIQVdAyNnxrKhj33sdbkKn5y8Dox7Y0Ybho7//9pJI7/rmXEeIgI5RrrW1eUd2XukC0M/rphvarCqFWm+tvY63EoUucb8hd5IjJlLhw7+Rbpng4/Qd8zkW4loS6QTxEpgtL1Jv9rJZTVe2OYlIpAk8EBtbTvSNFhp7gVGm2ixICKQSLWMYVXBbBGZ738AonHLhj6xxotyFI2Z8h4zrjYPYvtFPqydUtbOC7u8RASSRHotWtR634H6XoowiJjbI14VyymMiAdhdgjGHALwjk/rksUjhr2VTvv7jp5aQMzLrBNR8QgZ3KmmcmTMXADNGRFIinhoTvWNBB6kmLsAnOcSBscTiKNZO3INeAOTGrG0dEha0vD9fr/664HWu815AeL0rDPzxgUVI+9Khy2ZgggkxRTMm3d6QKOf0ngMzOcBjQgkqvoVPFZa1yFHP7Vo+PCPUm1v4YgppSBMiyeQ4N4H44r5laNPqNkljwfPRxQ2d5YPHPjlqscHTrpsz+cXgKkbMd4D7HQOYsdD2MDGoG4c8O3sNWl6de8JFWel1GCl54PVAXsOX8d8vppgcE5WLb4jHsQDfjpz9l0KNAbMHcmaQcGOQaI9SMTDhL3MYTBm5x7hiTX+0q9SYV9h6bQZABc34EUCAZ/63qLK0r+n4t6ZhngQD1hZPHjD8uJBtymiDsy81hry2KSNWoBRWp9Du3qPr/xZV//sk5JuIKsZpkXhiR2se4de5+QEOGsW3xEPkgH0mDqzHRRGg6kg+AA6A3mYPdmwBmnEOb+HwM/t19+8uMrvP5IsmwqHTV0NRud4PetgHGyh68+aM6f5p5+IB8kAlo4o3rm0tLg3M10E8Gzn2IyY17Ee5TusqbIVTv7fR5+uKEqWTZp0hes+2rXPr6e8Qcm6VyYjHiQDKZg4/Uxfju9ZsC4iwAft9BjO2MSOWRxi2h50Si+NLz3upuHCIVP/B4zromMRCt3yi2/+b985q1Ylz2tlIj6vDRBi2fHrN/Zv2/T6a1fffu8KAs4D+FLXQCaO71HCAjmTGf2vufmuFhffccNbO7dsMY7Vjquvv+tfxOgW9lTWPFoU3ECtW7bM++yP7254N4lFzzikipXBLBr7xEeLxhQ/oMA3AXgnJhaIR0goOcw0rvWhk3cUjqz4wbHe/7zT9r0Kpk8dUwLZogzNxjjani+oedKsC9fceHRCZYHWNIGYL3B7j+gql9OrmGqaua+eRq+qLD3qqVaLBlYMYuLZru+H4/uJOldXl3qSO5YOxIOcQCx8smT53/S/L2XgCQB7GmwKhnNvZuUWn+TjD/uUVdx8tPfc+9XeamjHvRCTfjI8ScXLSMSDnKD08M882aeNCcQYBM0+8x/SCuLjxSmRNHZUU06gtHZy06cWLeo/bRQYk1zf7XitoL4//6WSPyW9kBmAeJATlKX+4r2Lni0pJgM/iIlPEm0a/fhwzkd9iqfd3dR7tchtORvA13G9CANa69GpKaX3iAdpJvQZV/EYDEyypvAJexOraViz69c/fH55zmEurqoa0eh8XkVF054DY0xDIvEp46KqhSP/koqyeYl4kGbCSxNL52rKuxCgl2KqVxp20qG7068gkEMf9h00tdG5r4h8M8AIuDoOHWkoRsDXLJMYxYM0Q/qOmnYDG1RLjEtjq1mRYb7hi609vfxNK/RO1NJV1GfqcjB1j20QMB+jI2zUn1+7YtQJP2+xE/EgzZAF5cPfztvbuj2AZ12/+uYvP4XXio9OI+Eubfbxu/36TWlwVncFX7nbG0VS4s3vyCPOGZrGYqYF8SDNnMLSaVexQSvh8CbkbNWK8ST4BoyetbXD487fVdSz4i0wQpNaxzYtf+M70Pq7VesGHkhH2dKBeJBmTm3F8Pf3nbr3SmZMAUPbzb6O5de0Y8/UBqA1hX0qJnftWhebimSgPF4MEj5uo1vue9STgqYI8SBZROHgyg5gXg7Gea4HG1F7K++Lf6NVbpcFC4r3OL+nqKBiJ4DL4vW7APi45uXSS9JYrJQiHiSLqJ1dsvWbFsEHm6bHiIOjxBGKNW5RgcD7RT0qXeuEkMaU6M84BHdxYedpD3tSwBQgAskyVlWWHqydV1JCRDeB8DeXF4isE+IWzn8AvKXokQorAP9a713KjC/ijRUJfl4R/B4ULSVIFSuLKSwsbwPKWwLN90elzMd6F/M8rT2SG3hk8eKy/YVdKsYSMDFuWksQ1ndVrx2x0ZuSJQ8RiIC+facVE9MMiheXxKar/H+k6MHAYXzu8/FnYLSOySSGuf9V9brSOz0sVlIQgQgmfXtNv14RvwrNbc0T8cUR2Q5Acx9AXUXgcfGDdQrW36+teq3kj16W63iRGEQwWbB42O/zAoeuAOP1uA+8e2sFUB0B50DjkPvaSAciYGge62mhkoB4ECGGooJpY8D0XGOZwe4BWo5Vch0CU9q4rGrDiD97WJzjQjyIEEPN8uHPK/CNYPwzqgnXEkZccXDsmBQN3xiPi3NciAcRGuSxB6ecEfD56phxq+U1tCMQ1+HHJ1GVLPgrzHRe1aZhJ+RCoOJBhAaZu7rsi7Ov2Hs7AzNd3gGw52pI3OJlntesn/DC/mQgHkRoEv06T3scml6MqVI1tsHc/7vNIW5bufXoJ43wGvEgQpOo/vnwOWSon4BpXxNFESLkWb61LxcDPDT/mBEPIhwV/e+ruJwNeh2McxoViHv7R5t6vuhE8yLiQYSjYv660g+Uz7iGNX7foEC0ewu3erXd5zvxvIgIRDhqqtaN+NI4/HVHMFY2ua8klB1c5rXtR4tUsYTjot+dlROgMS66itVQPwmDH6neWrLca7ubingQ4bio3lTyJDT1azj+iGrx0jTEY5OPCvEgQlIo6ljZmTRWU7zUk6hqF2u6p/qdoes9NrlJiAcRkkLNlpKf+0C3grE3XnqKKy6BHum1vU1FPIiQVAbeNPMqrfUGMM5opPl3tTmdKbgtafo7a/4YRNvnvz/sNY+L4EIEIiSdx/6r8nsGaDMY34uX4Wvt43UsMt71Ke4y908lu9JsdlykiiUknbm/K9nlU/XXQ9P2hqpZCbZrDYO29b9iRjevywHxIEIqGXL9zJMPGToYjN+YwGPE35sNXtS+ZtvQHem0ORoRiJBy+l8zfQ+A05skEMdrAm2r2jH0qnTaGo1UsYSU0u+ayssscUTgJn/8yv6XTx+fEsOaiAhESCnEakTMJHNoJD0F4Qm2Q6/7e2m/CERILcyhdRGjhYH4noRA0efP8MPv2XMqAhFSC6NV3Hgj6jWF/4sjGvqi3Xdapc3eKEQgQqr51Px/ApEQyP0eXNfoM3bu8Ww5BRGIkFKY8ceGBlU5Y42YIN4+3u6HX6ff8hAiECGlEPN7DcYa8eDo6/i91FjWNEQgQkppedD3KoDQuoXOKlW014iPNhQqU21jIkQgQkqZ9b/Fe1lzrxhxRBNHMASeUL1j2La0GNoAsUtsCUKS+eOeX3563RmdTgLohrgXxPUktLVq59BeqbatMcSDCGlh3o6hZQR6GIzPrZPxq1mHiOkp5Le4Nc0mxkVysYS0MuDaeafg4OGRDH0rgeyl3RjbSOEtpfS0OdtLPvHUSEHIFAZcMfPCkrMr8r22QxCEY0BiEEFIgAhEEBIgAhGEBIhABCEBIhBBSIAIRBASIAIRhASIQAQhASIQQUiACEQQEiACEYQEiEAEIQEiEEFIgAhEEBIgAhGEBIhABCEBIhBBSIAIRBASIAIRhASIQAQhASIQQUiACEQQEiACEYQEiEAEIQEiEEFIgAhEEBIgAhGEBPy/AAAA//8iiVG0Tu91WgAAAABJRU5ErkJggg==;imageBackground=default;" parent="1" vertex="1">
          <mxGeometry x="-396.18" y="545.55" width="24.45" height="24.45" as="geometry" />
        </mxCell>
        <mxCell id="3_nuJzFFmOV05L7b0hrJ-87" value="" style="shape=image;verticalLabelPosition=bottom;labelBackgroundColor=default;verticalAlign=top;aspect=fixed;imageAspect=0;image=data:image/png,iVBORw0KGgoAAAANSUhEUgAAAMgAAADICAYAAACtWK6eAAAgTElEQVR4nOydB3gc1dX3/7N9tepdsmSrWJZs2ZYsd+zFBduhLcXhIxQnAUJ5gQVChwQMoSQmBV7CBggECOBQEiCEAWII1RswxkWWhWWr2LIkq3dLq7La3fmesUZ+14u0anNnZlf39zz7yLPS3ntkzX/OLeeeo+E4DhQKZXhUchtAoSgZKhAKxQ9UIBSKH6hAKBQ/UIFQKH6gAqFQ/EAFQqH4gQqEQvEDFQiF4gcqEArFD1QgFIofqEAoFD9QgVAofqACoVD8QAVCofiBCoRC8QMVCIXiByoQCsUPVCAUih+oQCgUP2hINMowDIlmAxIra+YfQnEAYgFECl/DAYQCCAFg9Po7GIWHlhPAAACH19cOAJ3CqwlAg81i75X511MUJBKQMEQanaICsbLmRAALhVc+gFkAsgDoCHXZAqAMwH4A+4TX/qkqHCoQhWFlzTMBrAOwGoAZQLLcNgkeZzcAu/D60maxd8ltlBRQgciMlTXrBTGcB8ACIFVum8bAgCCUD/iXzWIvldsgUlCByICVNasBbACwSRBGqNw2TZJiAK8B+IfNYj8stzFiQgUiIVbWPBvAdQAuBRAvtz2E+C+A5wC8bbPYe+Q2ZrJQgRDGypo1AM4HcCOANXLbIyGdAF4B8L82i/2I3MZMFCoQQlhZsxHAlQDuAjBDbntkxAPgHQC/s1ns38ptzHihAhEZQRi3CK9Eue1RGJ8AuN9msX8jtyFjhQpEJISh1FUAfkWFMSqsIJQiKTqzsuZcm8V+YCKfpQIRAStrPgfA48ImHmVs8DfJXwDcZ7PYm0h1YmXNjLDpucpmsbeN9/Mk7uUpE4tlZc3pVtb8HoD3qTjGDX/jXgOgzMqabxU8MAn4h9dcYTldEQS9QPg/ppU1/wJAibC5R5k4EYL3/cbKmvMJtH+H8HUjgbYnRFAPsYS9jFeF2CiKuLgA/BbAQzaLvX+yjVlZ8zIAO4TLPgBxNou9ezxt0CHWGOHHslbWzD+NCqk4iMEPs3jPvFN4EE2WLV7/NgD4gQhtTpqgE4iVNccC+BDA7wDo5bZnCpAHYLeVNV870QasrPlMfmLu87YihllBNcSysuaVAN4AME0WAyivA7h6PGErwsrVXuF4gDfHAcTaLPaBsbZFh1h+sLLmGwB8QcUhK5cC+NrKmtPG8ZkrhsShgspbWOEAzhDfxPER8AIRVqmeBvAnAGq57aGcGHLtsbLmtaP9oJU1RwsT/RNsyLqiXKsy1Hr9yAXErBwjAS0QK2uOAPAxgOvltoVyCvyNv83Kmi8f5ee2CEeQoVUZ6s/M2pSXG7+8zuv75wtHlmUjYAViZc3xAL6cYlG3gYQWwFYra75zuG9aWfNp/Hxl6Pq82de1qVUarE6/yPtUZiKA5ZJYOwIBKRAra87gx7qCO6com99aWfMTwmT8BFbWHArgZWGHHpGGuEOr0jfm8v/OiJk7TaPSeIeznC2H0UMEnECEc+DbAWTKbQtlzPwcwNNeIvkDgJnCv503LH08jhnUCvivWdGLq7w+e47k1noRUAIRxEFXqgKT/xFEch6Ak3smy1LO+S4pbEaM9w+uTt8Y63WZZ2XNKZJa6kXACISKIyjgRfL20EWYPrrskvl3FPj+UHbconSGYbwzsZwlmYU+BIRArKw5STjAQ8UR+JyIBOYFcNuKZxLUqu+vzPPvpYbnlHu9JdswS/ECsbLmMCF0ZCofhQ06Lpt3T21sSFLESN9fPv1s72R764SUS5KjaIFYWTP/n/TWMGEIlABmScrZhcumn5Xj72cWJq/PESKGeUwATpfGulNRtEAAPCXkpKIECSkR2UWb8u9eMNrPGbUhmihjoneSO1mGWYoViBAdOuEIUYryCNVFl912mm3e0JLuaOQnrvLOMUwFMoQQlWuT2w6KeBg1oZWb17yWrlXrx3zPLU09M93rcqaVNWeRsW5kFCcQIYTkH0KoAiUI0KmNNZvXvJZk1IaM6286LTwzRqvSN3q9Jflyr6IEIuy0vkRT8QQPBrWp6v7VW6NC9ZGGiXx+RuScGq/L9eJZNjYUJRAAN8sde0MRD5M2suKBta8nRBrjJpzwe1nqWSavy9UEM6oMi2IEYmXNcwE8JrcdFHGINMQdfGDtGzMm6jmGmJ94+iwAbuEyVOroXkUIRCgx8CI9Qx4cpEfN3/fg2jdnj3fOMRxGbYg6VBdV4fXWusm2OR4UIRAhN+5iuY2gTBpuddrF+25bYctXq8QbCWVFF3R6XUp6DFd2gQhnOx6R2w7K5GAYpvPKBQ9V/HCuVfSohyWpG7yje5dYWXOI2H2MhOwCETL1GeU2gjJxQnVR5ZvXvIGCaauJ7FNkxxakC6XkICz/n0ain+GQVSBW1rxBKFhDCUy4/IQ1ex5Z93aWv8DDyaJV65kIfbx3dO9qUn35IumSmTfCct0TcvVPmRxalaH+2sWPOnPiFkuSuTI7bpHj22MfDl1KJhA5PcjVAObI2D9lYnDZMUv2btnwXnxO3GLJjiDkJa6M8rpcIhQ/Io4sHsTKmg1CXldKABGiDTtyzaLf6GbGzP/eKUDSzIpdkC7UKWGEechiITcBUeQaYv1PgNQYpwin/9ZlbDp8bs5V+SpGntx8Bo1JbdSEVfa6uoYCGFcEpUAE13i31P1SJsRAXsKq/Zfm3TnXpAuX/dBaSsSslvLWPUMCWSlFn3LMQX5MgxEVjzsjMm/vA2vfcFy9+OGFJl24IiIc5iWs8LZjuXeuLVJI6kGENJK3S9knZVwMzIwu4D1GZrxpmuTzjNHITVg2452SPw5d8pP2bACHSPYp9RDLQusDKg81o+5YkHRGxfmzr8uJNMYptuBQvCklgmGYbo7jhqKDFwWbQG6WuD+KH0J10WVnZF7Stypt4zytWrdIbnvGQoQ+tqqjrzlXuFwCYCvJ/iQTiJD4bdSU+BSyaFX6xnkJK6vPyv5pRmJoWsB58+nhsx0dfc1Dl0tI9yelB/mZhH1RvDCoTUdz409rXp1xUeqMqJxEBkyC3DZNlJmx+fr9TSdXd/OsrFljs9hdpPqTRCDCeY8rpeiLMngGfFr4zMaC5LW6BUmrsiIMsWkAxlP1SbHMil3gnV3TAGA2gGJS/UnlQfihVcA+tZQKwzCdIdrwpriQ6R1pkXOYrNi8yJkxeWkh2rDUYN2ITQpLi1VB1e+BZ2jJNy8YBHKJRP0ENCqoHAyj6lGrtA6d2thr1Jj6Q7ThLpMuwhNpiEN0SLwm3pQaEmNKiowLmRZv1IZGCMX9pwwqRg2D1lTTM9A1VD5hPsn+iAvEypq1AC4k3Y/CcGtVhsYQbWhnqD66J1If5w43RHNh+ih1hCFWG66LNoTpo4wmfZjJoDaF6DUmo1F74gyQSXjFyf0LKJkYY3Jnz8DJpItEiyhJ4UHWCJs6QYlObahJDE1vSoua45kZnR+REjkzMdqQGK5WqZMBJMttXzAyLXymu+b4SYEEtgcJtjQ+WpWhbmZ0fu2SlPVhOXGLM0L1kUE73lcqM6JyjN8c+2DoMtHKmiNtFnsHib6kEIhsxU/EQqc2HCtIOqNhbeYlGUlhM6hnkJnUiOxYn7eyAewk0RdRgQibgwG3GSXgnBE5p/jC2TcmZcbMSwEgWxmwYMLp6oNKpYZGNfGMQEmhab7BrjkBKZBALNGsZtQdy1Ith8/JvjI3TB+l2LikQOVIe3FbTtzi6Mm0odMYGI1K0+zyuIYWM7LFse77kBaIJDH7YsAwTNeyaeeWbZxrzTdojFQYhDjcdqB5sgLBiQNUYW3dzvYhgRDL+k4FAnhyYpcWXlFw/1yTLpwKgyBNjtoOh/O4Q4y2wvRRjm5n+9AlsbPxxARiZc38ODGDVPtiEKqLKr9+6W/DpkdkU2FIAFvyXMWKtHN9J9gTIsqQ6KrvOjJ0SSyMhuSJQsUduPHCdVrq+XsfXf9O1vSIbHq6UQKcrj73d8329JkxeaLczLGmJO/ThHGkinySHGIR3eGcKFqVvuGm5f/rSY/KVbKAg44Py/66P8KQoNGodDFitJcYmuYrCN4z1YrRtjckPYjsh/x9iTImljx0xj8i06Ny6T6GhAy4ndwXlX9PLUhaMyBWm3Gm5DCftyLFatsbkh5kLsG2x82s6EX7blz++3wVo4R0xFOLf5f9dZ+bcy1YkXbepGqFeBNhiA/3fUustr0hcrcI2SYUM0FflLyh0HraH6g4ZICfe3x25I3UEG14RYwxccKVpnwJ0ZhMPm8FjkCE4ETRnhaTYXmqZd9PC+5bMNbSwxRxefuAjfcesSumn3dczHb1WqPv/UVkiEVKIIpYGcpPWFN4Wd6dipsLTRU6e1u6v6l5fzY/DTkj80eiDrkNGl8HAiI1Q0gJZNI7pZNlRuScoqsWP7hAbjumMs/vua/cA09IUljGAZMuQid2+wzDdHldEhmxkBIIEXc3VkJ1UeW3LP/jPDqsko8DTTuPVnWUnHhA/SDzJ0Se7mpG470rH1AeRLZjoGpG3XGP+YUkrVpHZ+QywU/MX9h9/4l9Cq1K37hg2ioiEd0aRtfrdUmkHAKpm8h3CU4yNuX9sinCGCvaagll/Ly895F9A56+JP7fq9IuqiOVEZ5hVB6vSyL3MimBfG8GJQWzohftXZSyLlDPnwQFZS17qvc3bT8RpcDPEc6a9VOiR2JJQ0ogk66PPV7UjLr16sUPKWpzcqrBD63+vOtelVDkBgWJ60p1GoNUBUUCaoglebr8H+b+vNGoDRV9pYQydp7ccUux09134uSlCqr+jbk3SFliL6CGWJKWdTZpIytWpp1H6x3KyEflW4urOw+e3HOan7jqu3BDjGT1zL3KRIsKKYFIuoJ0ed49KrqkKx/VnaUN75c+d3Lux889Lpl/G/Hhrpsb8B4xOEn0QepGJqLm4QjTx5TOSzxNMXFfU42egS7nk1/f5PIeVq+YfkG5SRdBfJjt4dzec91+En2QEggRNQ/H+TnXSdUVxQe3x43Htl9dMTTvwODmXcvGOTdIEt7j5lzeq6VEMrwH9GaaVqWvX5LyA2IZLSj+eWbnXYVtvfWnzP0umHNjo1atl+S+4jjO+0yIqMGQQ5D6RfoItXsKC5PX1zIMnXvIwbslzxaVtu46JdYt0pBwcFX6xlwp+u8Z6OJ83uoi0Q8pgfQSavcUfjBrE7F0L5SR2VH94aFPj7w2z+dt1/VLH4uTarHkeH9rm89bnST6CViBmLSRFbEhyVMq9b8S2Fe/veK1/Vsyfe+dhcnri5LDMkTJWDIWOnqbfYdURHLzkhJIN6F2TzI/wdxOug/KqZQ27656ac/mFN9ICZ3acOzyvLskPVrQ7KjzHVIRmYOQOpPeSqjdkyyfcTbNlSshle0ldX/69vYYDpzvuQv3DUv+AKkm5kPUHq/wnecGlAchYuwQKqh6ZkTmJJHsg/J/HG4rrn3i6+vDvOqTn2RJytlFQnJvSWnoqvKd7ATUKpbvBEpUIozxlaRCqCmnwg+rntxhjfBZUj2BSRt5+LL5d8qSX6ylp847jKXPZrETmaSTGmI1EGr3BCnhWaLkd6X4p6RxZ+Wfd92dNMyw6oQX//mKP0aqVfI8qLqdrd7VbitJ9UPEg9gs9i6Sw6zM6DwatUuYnTUflT6z685pHniGPet98dw7qhJD00TJkjhejve19rs5t/ex7iOk+iI5sTpEquHpkVmyJ4UIZthDzxdtLXo0C8CwD6L58afvXZF27mzpLRuksv1gtc9bZaT6IplZsRTAMhINxxqnSbbePpXwcB78Zff9hcWN9hGXbMP00aVXLXpQ1rzGB5p2+I5OviPVF0kPspdUwxKfM5gS9Lv7PFu2X7XfnzjUjKb57pV/maZWSVVef3jKWvf6RgoXk+qL5G+6h0Sj/ORQrVJTgYhIk+NY++/t13b0urpHPD+ugqr31hVPu+ROiMFxHNp667xLKLgD1YPs47222I0yDEMk7n+qUlj3RfkjX1yu7nV1p/v5Mc9PFtx/TAl7T5XtJXUcx3lnzSm2WezEQpuICcRmsTsAlIjdrorRSBIpHOzwT+I39v+h8MW9m2f63HDf48ysK75bOO0MRQSG7qz5t28NECLVbYcgPZj8VOwyCC7OSXNeTZLOvhbH41/deLStt37U+KmCpHWF52RfpZgUrgeavvbdsPwvyf5Ix898QaDNgD7kJTe7j31S9sCn/2+grbd+1HMbs2OXFV6x8H7FiKOzr6Wns7/F94AciXvsJKQ9yHbemw/lSRIDjuNMbo8Lcq+kBBoD7n7P87vu33ew5ZsxLdGmRc4run7ZY4oqG7Gj+sNSAN6CPWyz2I+R7JPo09hmsbfxDy2x2+12dtCJ+jg42PTt0bs/stSPVRxJoZn7b13xVJ6SxMHzVfW/fHf1PybdpxSP4fcALBazwcbuqoYIQyyx2tjBQp/L4Xpu1337y1v3jHljb3rE7KLbVvwpT2nVuJoctR0dfc2+u/cfkO5Xiv8FVuwGazor6GGpUdhV83HZPR9Z2sYjjsyo/H23r3wmT4nD1w8PvVju81YvgM9I90tcIDaLvQiAb+zMpKhoLZIsrVCgUdd1pOWBT3904JWiR2a5OVf8WD/HT8hvWfGkIus4ujxObl/DZ765z/5Ncv9jCKkeFa8BuEesxo52lMhWXkGp9A70DGwt/PX+/U3b84Wa4WNmeapl32V5dypmtcqXz4+8Vezm3L67/P+Qom+pBLJVTIH0ODsyBtz9nFatV9YsUgYG3E6OPfR84fajb2W4OffC8X78wjnWsrUZFyu2jiPHcdhW/rJvxTLec7wvRf+S+FObxX4AQJFY7Xng0RU37PAdk04p3B4XtpW9WnTntjNbP698s8DnfMSoMAzTfd3ix2rWZlwsSR6rifJ11fsHne7e6T5vv22z2IknBoGEHoTnZQCPi9XYf6v/1VkwbbVYzQUMvMf4pOL1ov8c/lvcgKcvbyJtaFWG2jvMz+qSwzIUndPYw7nxzsGnhhtOvyiVDVIK5K8AHhWrNEJF295ZLs8ANCrJa/XIQo+zy/neoeeLv6lh+aHUhIdE8aYZxbevfDo7RBum+FOZ28q3Fjnd33sIVJLePfdGsiULm8XeDuANsdrjOC5i17H/HBSrPaVytONgw1Nf37bn3o8trq+q313o5txRE2zKs2L6+YX3rXllXiCIo7u/s39b+YvD7XU9a7PYfdOOEkPqBW8bgCvFaowtfV61fPrZYjWnGHoHelz2o/888NmRN0MdAx2ZABIn056aUbdeWfBwR17SSsWuVPnywp7NBziO893D4Sfnf5HSDobjxBejv4TSVtb8OQDRJg/WpU9UZ8ct9J3EBRxOV5+H94hfVr3trO86kjvSefDxkhiaVnzL8j9mheojiRTaJ0FJ487KZ3bdOdz5lOdsFvuI9S5I3MtybJn+RkyBvLzv4d5H1/8TSosbGgveomjsOjrHA49oK0oqqHrPyb6mYkPW5b5JphVNz0CX8/k99w53YtQD4HdS2yO5B8GgF9kNYLxr9iPy/+beVnJ62gUBUaOwpafu+I7qDysK6z7XtvbUZnvgEX0+EG1MKrlh2e+TEkypE52vyMZj9mv2HessHW4R4k2bxX6Jv88GiwfheQTAP8Vq7K0DTyQXJK3uU+Iwwu1x41DL7sodVR+0lLbsSuhzO/jhIJGsIGpG3X7BHGv9qvSNcwLRo7KHni8aQRycsAIqObJ4EAx6kR1ipgWKCUk+sHnNa7lyxxJx4FB3/HDL7mOfVu1r/FLT5qjL8sBDOskENzN6QeHVix6ea9KFK36FajiEeQf/8BguVeMbNov90tHaCCYPwnM3gC/Faqy1py735b0P771y4QOS52xqczR076n/vGJv/Wfu+uOH092cK3a88VATJdqYfOBnix6KnR4xS9ZcVZOh9nhF07O774oeQRxuAPfLYNYJZPMgGPQiHwAQdZ12ddrF+34410o0tqjJUdtZVP9lZVHDdnfd8cPJA55+ybN9GDVhlZvy7+XmJ65U9G74aDQ5jrX/+oufeNyca6Q0pk/bLPYbx9JWsHkQnp8DWCfWkibPF0f/nt/n6im8LP9OUY6LejgPjnWWNxY37qg90PgV6roOzxD+mLIE+Jm0kRUX5d7kWZiyblYgzjO8aeyuaduy/acuP2H57QA2S2zWKcjqQTDoRfjJ1y/EtiElIrvo5mVPzDZqQ8clPofz+EBZSyHvHToOt+03He9rTpdgDjEqkYa4kotybzXkJQW2xxiisr2k7smvbzSOEhlws81if2qsbRK5lxUgEP7mOwhA9M0+rUrfcHnePV0j5XTif/eG7qNt+xu+qipp3uk+1lkW53T3KuYorwqq3ozo/JILc69PmR6RnSC3PWKxs+aj0teKfpPigcfk58f2Alhqs9jHXP88KAWCQZGcQzK+P8qQePDqxQ9HRehiIg617D5a0vRtV2XHd8aOvsb04aomyU2INuzIyhkXdK7LvHyuURsSNNGY/HD11cIte3fXbRttQcEDYInNYh9X+tqgFQgGRfICgKtENyZA0Kg0TfPiV1WdOevH6cnh0lWLlYpGR037k1/f1NTV3+ab12o4HrdZ7LePt49gnKR7cyuA9QBS5TZEKrQqfWN27KLqNRkXJWTFFExnGGbMZ8gDBQ/nxgelLxV9UrF1lgeesYiDH27/UgLTxoRiPAgGvcg6IddRYC/P+MGgNlXPjlvWuCp9Y3JGzNxpgb4S5Y9DzbuqXtzzINfr6kob40f4+cZym8U+oVxqQT3EGsLKmh9R0hNEBDwR+tiyguQzHCtmnJeZEJo6rqOxgcjh1uLavxVtaW/uqRlvXuZ7bRb7lon2G+xDrCEeAGAGcPp4PqRTG4+lR86rizDGck5XL6o7D4UI+Wcljz1RQdUXHzr90LLUc1VLUzZkh+ojc6S2QWo4cChu+OrIuyXPOJp7auYBmDbOJrYBeIyQeRNGcR4Eg14kWVjmG3VpU6PSNP4kf3NXfvKqmb7DlTZHQ9efvr3jaJOjmnjIt5pRd86Imlt++vQLw+YnrZylVeuCd+zkRVd/W9+nh/9e8lXVv2KFQMyJUAOgwGaxt0zGlikxxBrCypqXCWePfcttncSgNlU9sPb1BH9RvPyT7elv7io81LJT9NN0vDizohdXr07fGJsTvzhd7kBJqXA4O507av598Kvq95gWx7E5kxyJ9AFYOd4l3eGYUgLBoEg2AXh1hG877zn9pY5p4Zmjrvx4ODfu/fj8wz0DxzMna5NWpW/MjT+tek3GxSnp0XOSgnmSPQT//3e4bf+xXTWf1Jc07wgVShCI9TTYZLPY/yZGQ1NOIBgUya/5yZvv+7OiF+256bTHx3zoam/tF+UvFW6eUJUkXhRz4pbxogj6lScP5zkRI3WktbjuUMuunsr24vCu/rZ0DzwjevJJ8Cubxf6gWI1NlUm6L78UkhackuxhTebF4zottyB5VdbLhSrHKOENJ2EYpjMnZmn5hqxNSZkx83hRjDgf4p+w/a5eaFQ6aNXKPo7h9rhPzBtaexua2xz1XS099b31XUfdDd1HNR19TZH9LkeKB55oAKRr0b8opjhIoXiB2Cx2zsqarxH+YOcPvZ8WmTOuCSHv1UJ0ETXdzna/K0ph+uiK+Qmn92fHLjS09TZovj32Ue0HpS/WdvQ36fsGHIZ+V6/JxfWHC96Xn/uMGgrCMEwXBifyPQzUHoZROdWMxsUwjFurMgzw3zNoQk4k5NZrDG4Vo+VUKhVnUJu4we8ZoVH7f4B7PB70DBwX/u1mel3dTJ/Loel3O3ROd7/O5XHq3Z4Bk5tzx/BNyrwhuw3AtTL2P2YUP8QawsqajUI9iDX89WMbPkCIzrdcnX9+8Z8LS7r6WwPi7HoQ8zmAc20We4/YDZO4lwNm2UVIdX+u8B+M+q6j4y691ePsDLpQjgCDmDhIETACwaBIegSRvG+verd+PJ892nGwQTgKS5GHnQAuDCRxINAEgv8TyQ9LW3ZXdfd3jLlm+utFv28gaxnFDx8DWGuz2DvlNmS8BJxAMCgSZ7ez/ZJPD7/5gtsz+nmazyvfKqnrKldsDYwg500AlkDzHEMEzCR9JLaVvfKrxcnrb442JX4vCNDtcePN4sf37qhh8wP1YRDgPAngdpvF7paisym5UTgWHvj0Rz8L00VfMz/RrE8Ozwjr7m/vP9D4TXdx0/Y0l2fsdfooosG79ZtsFvuzUnZKBeIHK2teDOAdACmSd07xph3ARTaLnXgFWl+m9DLvaNgs9l1CPfb/ym3LFIb/GyyUQxykCBqBYFAkDcJG4iPCwX+KdDwpROVWym2ImATNEMsXK2s+HcDf6JCLOI0ArrVZ7O/JbQgdYo0Dm8W+HcA8oXgohQxvAchVgjhIEbQexBsra94A4M8Axpo8gOKfBiHroSTF/McK9SATxGaxfyx4k98BGJDbngDGLcw1spUmDlJMCQ/ijZU1zxTqtVvktiXA+AzAbTaLvUhuQ0aC7oOIiJU1rwfwMIClctuicHhB3GOz2LfJbchoUIEQwMqaLxBSDdFYrVM5ICyX/91msQfEkjkVCCGsrJk3+BwAdwBYJbc9MrMTwBYA/5KyYL8YUIFIgJU1LxLyBF8kZmEfhTMAgJ9022wW+w65jZkoVCASYmXNsQB+DOAaALPltocQBwG8IiRQaJLbmMlCBSITVta8EMClAC4OguzztcIG36tiJGtTElQgMiPMVZYK85WzhHrngfDL7gfAAngXwJ5Am1uMFSoQhWFlzfFCTZOVwitXAYLh/6CHAGwXkiR8ZrPYm2W2SRKoQBSOlTVHAuAn+fOFVx6ALABjSlY3AboAlApziWIh3Jz3EF2E+lM0VCABipU1RwCIF168iMKFV5iQeE4vfNUJYfq9wkcHADgA9Ahf2wG0AWgF0GKz2Ntl/tUURcAIhEIJFqZEsCKFMlGoQCgUP1CBUCh+oAKhUPxABUKh+IEKhELxAxUIheIHKhAKxQ9UIBSKH6hAKBQ/UIFQKH6gAqFQ/EAFQqH4gQqEQvEDFQiF4gcqEArFD1QgFIofqEAoFD9QgVAofqACoVD88P8DAAD//wV7e9rhbBl6AAAAAElFTkSuQmCC;" parent="1" vertex="1">
          <mxGeometry x="-287.01" y="532.5" width="22.5" height="22.5" as="geometry" />
        </mxCell>
        <mxCell id="3_nuJzFFmOV05L7b0hrJ-88" value="" style="shape=image;verticalLabelPosition=bottom;labelBackgroundColor=default;verticalAlign=top;aspect=fixed;imageAspect=0;image=data:image/svg+xml,PHN2ZyB4bWxucz0iaHR0cDovL3d3dy53My5vcmcvMjAwMC9zdmciIGZpbGw9Im5vbmUiIHZpZXdCb3g9IjAgMCAxODUgMTU2IiBoZWlnaHQ9IjE1NiIgd2lkdGg9IjE4NSI+JiN4YTs8cGF0aCBmaWxsPSIjRjg0MjNGIiBkPSJNMCAxNTUuNUw5NCAwTDE4NSAxNTUuNUgxNDBMOTQgODNMNDIuNSAxNTUuNUgwWiIvPiYjeGE7PHBhdGggZmlsbD0idXJsKCNwYWludDBfbGluZWFyKSIgZD0iTTk0IDgyLjVMNDIuNSAxNTVIMEw3Ni41IDU3TDk0IDgyLjVaIi8+JiN4YTs8cGF0aCBmaWxsPSJ1cmwoI3BhaW50MV9saW5lYXIpIiBkPSJNMTQwIDE1NS41SDE4NUw5NCAwTDE0MCAxNTUuNVoiLz4mI3hhOzxkZWZzPiYjeGE7PGxpbmVhckdyYWRpZW50IGdyYWRpZW50VW5pdHM9InVzZXJTcGFjZU9uVXNlIiB5Mj0iMjIzLjUiIHgyPSI4NSIgeTE9IjUwIiB4MT0iMjIyLjUiIGlkPSJwYWludDBfbGluZWFyIj4mI3hhOzxzdG9wIHN0b3AtY29sb3I9IiNGQzBBMDQiIG9mZnNldD0iMC41MzYxMTEiLz4mI3hhOzxzdG9wIHN0b3Atb3BhY2l0eT0iMC43NyIgc3RvcC1jb2xvcj0iI0NGMDUwMCIgb2Zmc2V0PSIxIi8+JiN4YTs8L2xpbmVhckdyYWRpZW50PiYjeGE7PGxpbmVhckdyYWRpZW50IGdyYWRpZW50VW5pdHM9InVzZXJTcGFjZU9uVXNlIiB5Mj0iMTM2IiB4Mj0iMjI2IiB5MT0iMS41MDg2MWUtMDYiIHgxPSIxMzkuNSIgaWQ9InBhaW50MV9saW5lYXIiPiYjeGE7PHN0b3Agc3RvcC1jb2xvcj0iI0UyNDIzRSIgb2Zmc2V0PSIwLjQ3MzQ2NiIvPiYjeGE7PHN0b3Agc3RvcC1vcGFjaXR5PSIwLjc3IiBzdG9wLWNvbG9yPSIjRTI0MjNFIiBvZmZzZXQ9IjEiLz4mI3hhOzwvbGluZWFyR3JhZGllbnQ+JiN4YTs8L2RlZnM+JiN4YTs8L3N2Zz4=;" parent="1" vertex="1">
          <mxGeometry x="-277.84" y="330" width="23.72" height="20" as="geometry" />
        </mxCell>
        <mxCell id="3_nuJzFFmOV05L7b0hrJ-93" value="implémentation du nouvelle endpoint sur nouvelle api permettant de récupérer les policy et leur id en fonction d&#39;un objet métier" style="shape=note;whiteSpace=wrap;html=1;backgroundOutline=1;fontColor=#000000;darkOpacity=0.05;fillColor=#FFF9B2;strokeColor=none;fillStyle=solid;direction=west;gradientDirection=north;gradientColor=#FFF2A1;shadow=1;size=20;pointerEvents=1;align=left;" parent="1" vertex="1">
          <mxGeometry x="307.59000000000003" y="250" width="251.11" height="90" as="geometry" />
        </mxCell>
        <mxCell id="3_nuJzFFmOV05L7b0hrJ-94" style="rounded=0;orthogonalLoop=1;jettySize=auto;html=1;dashed=1;entryX=0.934;entryY=1.05;entryDx=0;entryDy=0;exitX=0.777;exitY=-0.011;exitDx=0;exitDy=0;exitPerimeter=0;entryPerimeter=0;" parent="1" source="3_nuJzFFmOV05L7b0hrJ-93" target="3_nuJzFFmOV05L7b0hrJ-8" edge="1">
          <mxGeometry relative="1" as="geometry">
            <mxPoint x="178.28" y="360" as="targetPoint" />
            <mxPoint x="317.28" y="202" as="sourcePoint" />
          </mxGeometry>
        </mxCell>
        <mxCell id="3_nuJzFFmOV05L7b0hrJ-96" value="" style="shape=image;verticalLabelPosition=bottom;labelBackgroundColor=default;verticalAlign=top;aspect=fixed;imageAspect=0;image=data:image/png,iVBORw0KGgoAAAANSUhEUgAAAMgAAADICAYAAACtWK6eAAAdI0lEQVR4nOy9C3xU1bn//XvWJIGAaK1We/BW70cUtVrrwSteaotXVKBELkLCRUECCYSr2lFACZeEiwiEJMgdgkoBixZowdYj7anWCoh99VShtbWveGxF7pm9nv9n9szsy8xkEmBm9pB5vn62e/aePbOfFfZvnvWs9ay1FARBaBARiCAkQAQiCAkQgQhCAkQggpAAEYggJEAEIggJEIEIQgJEIIKQABGIICRABCIICRCBCEICRCCCkAARiCAkQAQiCAkQgQhCAkQggpAAEYggJEAEIggJEIEIQgJEIIKQABGIICRABCIICRCBCEICRCCCkAARiCAkQAQiCAkQgQhCAnK8NkAIMe+da1vtP9SyHStqx1BtwfrvPujtJTe+/SevbctmyGsDBGDq1pvGE9OT8d/l32rKebqsw5Yt6bZLEIF4SsVbt94MpWsYuDj+FdY/D4PwTOl//eZZInAaTcx6RCAeUfH2Le0Z/H7sv4F9yDFSoMUjbnyzd1oMFEwkSPcIBleH1EBwbyFhuMVhvddr6tu3DPXI5KxEPIgHTHv7lkIANZHjOJ4i5jNsn/vSR4fPLb1h68HUWilAPIg3MPBMxEs04Cmc14KZwi/M7fQAt7w73TZnKyKQNFP525suAOPs0FFs9QpwaMEURrQ3MY/vSqvRWYz0g6QZTb7znMemA4kRAUwhxG2uMpVDl6bKPsGNCCTdKKXA2o4pLBXEVq1C/4sbJgZSa6QQQQSSZnS98Ql8kZqtw0vE8SLcQBsKM21LnYWCE4lB0kzZrb/5FCCDLXHExhmh9yKBOcVsRPSeR+ZnHSIQD2BWNZGHPRiIRwRhvmYV3gfPKdd7OrT938FA/Wqvy5AtiEA8IDdgjALor844xCkUq1Urcp4d59k3xH/bln1elyFbkI5Cj5j02x9fRWz8joGWsATgJCyQyOsQW8d2fOOGdNuazYgH8YjRN//yfQL9hJm+dnoNy2Ow25uEz13g39xRGlbSiAjEQ0besvHNQCDnWjAt0qygtQrHIO5NW7GJOjMXrbt7bXc2IVWsDKH8rfvbGPX1dzBoOgPnRapYNlYi4/an7njtSq/szDZEIBnGhM33bWDmH7kF4u5VZ8btP7tz7WZvLMwupIqVYZid7KyAqOZfu1lYgaBKvbYzWxCBZBia1RlmPBKJQXTotX2OgrHKPeM3PniZ17ZmAyKQDIPZd6bdkqXMzsKQ91DWxiAKQA3z2tZsQASSSZj1KfVdZl9QKIi0bOnIa6dnMdSj/je6fttrk5s7IpAM4qlfFrTTrCjiQUI5WqqBPhLVIgDfYK9tbu6IQDIIhr4z5CV8ltfgiOew+kh8dh+JVoOHrO/Uwmu7mzMikAyCWf3I6SUQDspDnsQ5qUP4PHDmKXRqT6/tbs6IQDIK1dH8J4kE487MXrs33VXd0lqafFOJCCRDGLO+Z2etVWut3QG5dqWcxK1utRu7tncnr+1vrohAMgTWOX3MBx72OJBQlcps6v2UofbAVd2yvYsmEi+SIiTVJAMYuabwUij82WznJUTlYDFAPJVBe4nxrH0+KleL6Ory+2rfT6PZWYF4kAxAKzUmFFuoOAOnFBTxfIPz5gB0yO40dKfCQ2KRlCAexGNK1g6+XHH9jnD7VMiDuF3Im1Pur+4YfFG2puhFAh6PvBEUEbF9db2h2k5/uOrztBagmSMexGOU1s+7Yg/HuPTQBA1qeuRan8+sarEzgZFhJzLmEp7wtjTND/EgHjJs9ROdCLze6TnsxHZzv3PaA/OucGa7l/18wBpm3B86cs+txcBXR1rmtZ1196zDaS5Ks0U8iEcMWT/kZGaqdc9o4pzVxOwp90dPsKg1poRauZRraG7Yk3y7xUFDOg6TiAjEKw76qthMTFRuUVib73cVD81ZFf2xaQ9VvcVa/YF1VCeijvSVoMSbAjVPRCAeMOTl0mKAfhpqgXKIIuJNoGCQajCeYKapkRYuZ99I2BNdXvLKkDvTW6LmiwgkzTy+quxmDTWDHQOgIuM+HN6kZuaDM99t6Dsqu8yuY6bPWDsFFvQi4WMDMlYkSYhA0siQV0aeTVBrrGRER6+51Sql6R/6IDfap8GMWdHxix20090lr5RckIYiNXtEIGliUJ3/pHojZwMznRrxGDoq9tChalbfWT1n7W3s+1pw63nM6kC8aYKYiYxA4yITGkcEkgb6LPC3NLh+LTMuY2fvd1gckfiBgOmzulZuaMp3lncr/1prVQu357AnnNNUOHjh4NNSXLRmjwgkxXSt8+fl5hvrGHSbK86INNXagfrG0z44efjRfHeOgUpmYrsVixyp8pSvcvNkxOFxIgJJMadovMxQd1qBtN1n4RwUtbPVIf2g3+/XR/PdlT0qPwHoF+4Z4iPrHpqtXEOC3itlhcsCZJ7XFDGgbtIpAaP+dYbuEHpYdTgDN7y3VyL8F5jvmdp76v5juY/BmE6s7jV74dm9ziEYp5+U+00fAHOTWLSsQjxICuhTN/m7RwLG2wzq4MqZssZ3OH7xFd8zt2DSrmO91+yCil8B2BG6R2TxT9jZvqxGJLd02YUIJMn0XjblSg4Y74KonT34yRFAuzv2CuZ1e37r8d6TWU2GI2nRXlvE9CsXDl444sGkFC4LEYEkkd5Ly29j6P9mqLZWwGyJJMpzsHp8fvfxK5Jx3++0bbWcWf3dPX7dMW6EfGOScZ9sRASSJB5ZWjlAk+/XgDqJraoUHM259i+81mrc/AJ/0uIC/23+ADOmO1Pf7YDdvPd1g2pHycI7x4AIJAkULJtRA/A8ZxWKHYtxWn0fUNBQo2p7PP1c0o1okT8XWn1tzXzi9CDBTSlJYjwGZDzIcdB10azzlY/XKOj2IQlouKXhOt5P4IcX9Bj3y1TZ8/jC0cFYpMw5KJHtJRQ0WF88p3DSJ6m6f3NEPMgx8tOlsx9SPrUNoPYxLVOOrNyQTNQnIPwgleII4gvo6bCSFkN7y4NoUsS+oam8f3NEPMhR0nnBgm/l5Bx+gYh7RDwEke0xnBWrUN8Ev5GfZ3Sv6jb663TY9/iCcS8BeNS94k7IoRCw3wgEzqoaWJ4WW5oD0lF4FHRZPL8jKLAUoLahBy7oIbRrJaioWXueX9Jj+DhTQWmCAlSufQ6BOO7MjNbKlzcQwOR02XOiI1WsJtBpyZKTOy+unadJbdZAWzvohmvOXNgB+SFi1WVpz+Fj0ymOIC/2n/AhQButfhFrffWwX9MoTqc9JzoikEa4f8nCnnkIfAyiAZHmW8TEGnAul7abA/oHS3oNe8Urm1n7Kqw4xBGThOORswbOfUrGrTcREUgDdFqx4sL7liz5NUMtZqgzosUQwkrniDyM61sGjKuX9yn9wEvb5/XzvwHGTvPAWdWypy0d5aV9JxISpEfRccGClvm5+U8qcBlB5zmDbxXZcyjp1grSoQ8Q8/C63oMyJilwwDx/PxDPj4lFwpm+zPjR/EH+Td5ZeGIgHsTBT5a+/OOWuW0+ItA4BuUhpqPPmXiIyO/Le4bi9pkkjiAtDn97MZi+gqMH35mnpQBJYmwC4kEA3Llw7bnkC7yowPc4O/ice9tz2J6EoJ95tVd/v9f2N0T/uc8+TczPmAdxWrWg6cqqIU9v98S4E4Ssbua9sWZNm1b5agxYDyOm/ODTw+HGWg4PgmVrnAXbKzyBPlFE3V/tWfQHr8uQCJ2jX1D1NBaM0DJtrr4RsywjzD4ToUGytop129LXi1u0zNmlGWMYlG8H33bzrZWm7jrGLOPAkfav9uyb0eIIUtPP/xU0LY+pZmmKjNfqXTjL39ZrOzOZrPMgty7Z8CBITwL4Evc7Ee8Q6e6zxUGhStZ/K0MPXNunj6ctVEeLVpipDPSxTlhVrVAZlVZDAEg6fANkRwziZ3XzxVu6AbqMoK8JxRaOOIOdcYUj9mAj+Af6DDBGru/1yHKvi3Gs9Hth/Jtg3BJ8TTGtWvQV5QfOqRroP+CdhZlLs/YgHerezkd9oAjqN6XMOB/mA0Ixvd9wRBwWjMNMqMjZ32rCuoH3ndAPD4Gmc1ggHJWjBeDbfMAXjEPmeGVfJpNxHqRd3QcnGZzfWTHdwNC3EPHlAH9JhM0E1H3Q7eKXG/uOa5e9c3oOHSkG8xAF/S2Xx2BtjcwIeY/YFivFep1PYdgvejzcbFLD+80cvxtM55oHsSL5qLrkyUs9Mi2jySiBXFy36x7FmAvw2TFZseYVZnVoNzQe++CR/3wj+vPXL/nd2UaObySx7k/QLUNVJ8NqmrUFYgsm1HSrw+P/jB2KqXRDrwc2elH+VFI0fWIJARXmQZzOQ9a4t6Zs3C88MzBDyZhWrEtW7FqkGK8BOLuhayj0v/NI6dfbr/hgdOT8Vcv+dPnVy99bHPDl/A2MIQxYc0ExoqbCsb/JhukvTFSwqWfn9s1RHEFa5NbPB/Dv+D3rABHJhNdxyAgPcsnKXYMBvABnT4MjBdBugA0H0uFqEYhH+aBvBOv77UDbrkIFfxaVKxiPeArr/OeK+dlf9/xJRvWCp4p+Fc9NZGBsbKAeuYKvqi4bt80b6zITzz3IBXV/ORdEU4/ls8QoZ6b7I8d2+rl1Rcxx+Fn4N5jHHs5tc2G2iAPmVKW5M8A4Epk7K9yvE8Kc4EGVeWth5uG5QHIpdwjCVaJ47qzhKlK0EOA6diWx2u8fBGGy74jv/Dd7/vj5rd1uOJi0gpwAzC0r+wLMi8KO2JzskUPxR3gpaXTvV17eYBU3G/FcIMzcIepMI5+gBq5ukmhyoXGTztPDOi7beFPHzZubdTN3PNjImWr6XrYHUkUSGM1mf61lQJUDz2OQS+p2HzQ9CLt9hdMH2HGIDsmAo5IIw519kdYp9znDEZOEWrUcHYT7wfymj4yNCvyrTT3vyYrEvaLJk1aDuXMDAfvX7FPn1I4a9Y1nBmYQnv6CXlD3l1PgaHE6GjhK3fZx1KhwqyMw6tcgdElrIr6bQXdrZty++LU9CnqT0rwpRx9ev75vt38eU8EyHKUxRQOdzYOo1BMwTkE9igBM987CzMFTD3J23d/yW0GHeqnZGWI37kHg6NyzvUNkHioddU433kFoHUdSTMz3/gDgZZ8PK9f3eHi3Z3+oFFD03KTfA/iheRCbCr+r5snR53tkWkaRCVWszwCc1TSBsPUwu/Om7HyqYxIIO3vSozoT2brv78HGyhwDK9cWFfzDwz9ZUiicOKkbEVbGrWax2S/StfqpUY1mLTR3vBfIyl3LQdQ9WiB221OcPhG2xeFjfS+T8TGBL1Osg7+I3yfwFYr1OY7+DssrNF0gnOAa/RYxXs45outeHdjrc0//gMdB34nlu4n5XFMQdqAemUfr7dqfjbrRYxM9x3OBXLRi1zVK0buNC8TZUWj9qm/b3r3dVfG+t+OCzS3357durzjwQ2J9G7G+ncCnxggkpqoVp9rlbBTgyIIG1vnfKsbiQCBn9bqBj3yZvr/c8VM4oXwYGJWIzvINv1aG/uH88WMyftxLKvFcIEEuXbV7BjOK7ZYs5xCleJ4k9KD6wO23dW+3o6n36bD8ze/7DH0DMXcgMjoQ+AJn1QvOOCSeQKwht6HFN0JCg2UPgTco0lWvFBV5NuXP0TDI7z/pkMr/zAzM4ahewWr1WFHzzKgCr+30kowQCEJVrY0A7owVCOKknWiQ1g/tKGi3+njuecfCTacFfPW3KObOCvpuMJ8et0rF7thHscMOt0DMa0G8CxoV+YdaLFxa3LPRJZ29pPCZ8kkARjk9h5WfxYBP8XlVz4z+q5c2eknGCCTIpXW7h4L5ZwCfiqj+cCuzl/ljn6JHt3e7+LhXZormjiVrr1ManQDjXmJcFxWkOzyJq4rlOI6Kk5gPAbrGF1CzVw7u/2Gy7U0GAyZW/kfgSP0/GkpiBPP02omjsnbphIwSSJArF/2z9ZEWhx5jcDcCfw/AGeFf6/9hosV/7nbRC+mw445la87Mqw90Y+YHCPqOiKdokkAsbxJpkjYftF+BjZmrBg1amw77j4ZCf3k1NBU10KJ1qIU22s6ZNOZfHproGRknkEyk05IlJ9ORnIeJ8FNi/jGFJ6x2VcGixBGJpyICcYjorwDNyAkcqV5aXJwR1a8+/qn/qQwd8nDxqlqax9ZMGvW8dxZ6hwjkKLmndukFChhAzP2I+TRXqxo7YiXnOUaMZwHzIQVdAyNnxrKhj33sdbkKn5y8Dox7Y0Ybho7//9pJI7/rmXEeIgI5RrrW1eUd2XukC0M/rphvarCqFWm+tvY63EoUucb8hd5IjJlLhw7+Rbpng4/Qd8zkW4loS6QTxEpgtL1Jv9rJZTVe2OYlIpAk8EBtbTvSNFhp7gVGm2ixICKQSLWMYVXBbBGZ738AonHLhj6xxotyFI2Z8h4zrjYPYvtFPqydUtbOC7u8RASSRHotWtR634H6XoowiJjbI14VyymMiAdhdgjGHALwjk/rksUjhr2VTvv7jp5aQMzLrBNR8QgZ3KmmcmTMXADNGRFIinhoTvWNBB6kmLsAnOcSBscTiKNZO3INeAOTGrG0dEha0vD9fr/664HWu815AeL0rDPzxgUVI+9Khy2ZgggkxRTMm3d6QKOf0ngMzOcBjQgkqvoVPFZa1yFHP7Vo+PCPUm1v4YgppSBMiyeQ4N4H44r5laNPqNkljwfPRxQ2d5YPHPjlqscHTrpsz+cXgKkbMd4D7HQOYsdD2MDGoG4c8O3sNWl6de8JFWel1GCl54PVAXsOX8d8vppgcE5WLb4jHsQDfjpz9l0KNAbMHcmaQcGOQaI9SMTDhL3MYTBm5x7hiTX+0q9SYV9h6bQZABc34EUCAZ/63qLK0r+n4t6ZhngQD1hZPHjD8uJBtymiDsy81hry2KSNWoBRWp9Du3qPr/xZV//sk5JuIKsZpkXhiR2se4de5+QEOGsW3xEPkgH0mDqzHRRGg6kg+AA6A3mYPdmwBmnEOb+HwM/t19+8uMrvP5IsmwqHTV0NRud4PetgHGyh68+aM6f5p5+IB8kAlo4o3rm0tLg3M10E8Gzn2IyY17Ee5TusqbIVTv7fR5+uKEqWTZp0hes+2rXPr6e8Qcm6VyYjHiQDKZg4/Uxfju9ZsC4iwAft9BjO2MSOWRxi2h50Si+NLz3upuHCIVP/B4zromMRCt3yi2/+b985q1Ylz2tlIj6vDRBi2fHrN/Zv2/T6a1fffu8KAs4D+FLXQCaO71HCAjmTGf2vufmuFhffccNbO7dsMY7Vjquvv+tfxOgW9lTWPFoU3ECtW7bM++yP7254N4lFzzikipXBLBr7xEeLxhQ/oMA3AXgnJhaIR0goOcw0rvWhk3cUjqz4wbHe/7zT9r0Kpk8dUwLZogzNxjjani+oedKsC9fceHRCZYHWNIGYL3B7j+gql9OrmGqaua+eRq+qLD3qqVaLBlYMYuLZru+H4/uJOldXl3qSO5YOxIOcQCx8smT53/S/L2XgCQB7GmwKhnNvZuUWn+TjD/uUVdx8tPfc+9XeamjHvRCTfjI8ScXLSMSDnKD08M882aeNCcQYBM0+8x/SCuLjxSmRNHZUU06gtHZy06cWLeo/bRQYk1zf7XitoL4//6WSPyW9kBmAeJATlKX+4r2Lni0pJgM/iIlPEm0a/fhwzkd9iqfd3dR7tchtORvA13G9CANa69GpKaX3iAdpJvQZV/EYDEyypvAJexOraViz69c/fH55zmEurqoa0eh8XkVF054DY0xDIvEp46KqhSP/koqyeYl4kGbCSxNL52rKuxCgl2KqVxp20qG7068gkEMf9h00tdG5r4h8M8AIuDoOHWkoRsDXLJMYxYM0Q/qOmnYDG1RLjEtjq1mRYb7hi609vfxNK/RO1NJV1GfqcjB1j20QMB+jI2zUn1+7YtQJP2+xE/EgzZAF5cPfztvbuj2AZ12/+uYvP4XXio9OI+Eubfbxu/36TWlwVncFX7nbG0VS4s3vyCPOGZrGYqYF8SDNnMLSaVexQSvh8CbkbNWK8ST4BoyetbXD487fVdSz4i0wQpNaxzYtf+M70Pq7VesGHkhH2dKBeJBmTm3F8Pf3nbr3SmZMAUPbzb6O5de0Y8/UBqA1hX0qJnftWhebimSgPF4MEj5uo1vue9STgqYI8SBZROHgyg5gXg7Gea4HG1F7K++Lf6NVbpcFC4r3OL+nqKBiJ4DL4vW7APi45uXSS9JYrJQiHiSLqJ1dsvWbFsEHm6bHiIOjxBGKNW5RgcD7RT0qXeuEkMaU6M84BHdxYedpD3tSwBQgAskyVlWWHqydV1JCRDeB8DeXF4isE+IWzn8AvKXokQorAP9a713KjC/ijRUJfl4R/B4ULSVIFSuLKSwsbwPKWwLN90elzMd6F/M8rT2SG3hk8eKy/YVdKsYSMDFuWksQ1ndVrx2x0ZuSJQ8RiIC+facVE9MMiheXxKar/H+k6MHAYXzu8/FnYLSOySSGuf9V9brSOz0sVlIQgQgmfXtNv14RvwrNbc0T8cUR2Q5Acx9AXUXgcfGDdQrW36+teq3kj16W63iRGEQwWbB42O/zAoeuAOP1uA+8e2sFUB0B50DjkPvaSAciYGge62mhkoB4ECGGooJpY8D0XGOZwe4BWo5Vch0CU9q4rGrDiD97WJzjQjyIEEPN8uHPK/CNYPwzqgnXEkZccXDsmBQN3xiPi3NciAcRGuSxB6ecEfD56phxq+U1tCMQ1+HHJ1GVLPgrzHRe1aZhJ+RCoOJBhAaZu7rsi7Ov2Hs7AzNd3gGw52pI3OJlntesn/DC/mQgHkRoEv06T3scml6MqVI1tsHc/7vNIW5bufXoJ43wGvEgQpOo/vnwOWSon4BpXxNFESLkWb61LxcDPDT/mBEPIhwV/e+ruJwNeh2McxoViHv7R5t6vuhE8yLiQYSjYv660g+Uz7iGNX7foEC0ewu3erXd5zvxvIgIRDhqqtaN+NI4/HVHMFY2ua8klB1c5rXtR4tUsYTjot+dlROgMS66itVQPwmDH6neWrLca7ubingQ4bio3lTyJDT1azj+iGrx0jTEY5OPCvEgQlIo6ljZmTRWU7zUk6hqF2u6p/qdoes9NrlJiAcRkkLNlpKf+0C3grE3XnqKKy6BHum1vU1FPIiQVAbeNPMqrfUGMM5opPl3tTmdKbgtafo7a/4YRNvnvz/sNY+L4EIEIiSdx/6r8nsGaDMY34uX4Wvt43UsMt71Ke4y908lu9JsdlykiiUknbm/K9nlU/XXQ9P2hqpZCbZrDYO29b9iRjevywHxIEIqGXL9zJMPGToYjN+YwGPE35sNXtS+ZtvQHem0ORoRiJBy+l8zfQ+A05skEMdrAm2r2jH0qnTaGo1UsYSU0u+ayssscUTgJn/8yv6XTx+fEsOaiAhESCnEakTMJHNoJD0F4Qm2Q6/7e2m/CERILcyhdRGjhYH4noRA0efP8MPv2XMqAhFSC6NV3Hgj6jWF/4sjGvqi3Xdapc3eKEQgQqr51Px/ApEQyP0eXNfoM3bu8Ww5BRGIkFKY8ceGBlU5Y42YIN4+3u6HX6ff8hAiECGlEPN7DcYa8eDo6/i91FjWNEQgQkppedD3KoDQuoXOKlW014iPNhQqU21jIkQgQkqZ9b/Fe1lzrxhxRBNHMASeUL1j2La0GNoAsUtsCUKS+eOeX3563RmdTgLohrgXxPUktLVq59BeqbatMcSDCGlh3o6hZQR6GIzPrZPxq1mHiOkp5Le4Nc0mxkVysYS0MuDaeafg4OGRDH0rgeyl3RjbSOEtpfS0OdtLPvHUSEHIFAZcMfPCkrMr8r22QxCEY0BiEEFIgAhEEBIgAhGEBIhABCEBIhBBSIAIRBASIAIRhASIQAQhASIQQUiACEQQEiACEYQEiEAEIQEiEEFIgAhEEBIgAhGEBIhABCEBIhBBSIAIRBASIAIRhASIQAQhASIQQUiACEQQEiACEYQEiEAEIQEiEEFIgAhEEBIgAhGEBPy/AAAA//8iiVG0Tu91WgAAAABJRU5ErkJggg==;imageBackground=default;" parent="1" vertex="1">
          <mxGeometry x="-601.6300000000001" y="635" width="24.45" height="24.45" as="geometry" />
        </mxCell>
        <mxCell id="3_nuJzFFmOV05L7b0hrJ-97" value="" style="shape=image;verticalLabelPosition=bottom;labelBackgroundColor=default;verticalAlign=top;aspect=fixed;imageAspect=0;image=data:image/png,iVBORw0KGgoAAAANSUhEUgAAAMgAAADICAYAAACtWK6eAAAdI0lEQVR4nOy9C3xU1bn//XvWJIGAaK1We/BW70cUtVrrwSteaotXVKBELkLCRUECCYSr2lFACZeEiwiEJMgdgkoBixZowdYj7anWCoh99VShtbWveGxF7pm9nv9n9szsy8xkEmBm9pB5vn62e/aePbOfFfZvnvWs9ay1FARBaBARiCAkQAQiCAkQgQhCAkQggpAAEYggJEAEIggJEIEIQgJEIIKQABGIICRABCIICRCBCEICRCCCkAARiCAkQAQiCAkQgQhCAkQggpAAEYggJEAEIggJEIEIQgJEIIKQABGIICRABCIICRCBCEICRCCCkAARiCAkQAQiCAkQgQhCAnK8NkAIMe+da1vtP9SyHStqx1BtwfrvPujtJTe+/SevbctmyGsDBGDq1pvGE9OT8d/l32rKebqsw5Yt6bZLEIF4SsVbt94MpWsYuDj+FdY/D4PwTOl//eZZInAaTcx6RCAeUfH2Le0Z/H7sv4F9yDFSoMUjbnyzd1oMFEwkSPcIBleH1EBwbyFhuMVhvddr6tu3DPXI5KxEPIgHTHv7lkIANZHjOJ4i5jNsn/vSR4fPLb1h68HUWilAPIg3MPBMxEs04Cmc14KZwi/M7fQAt7w73TZnKyKQNFP525suAOPs0FFs9QpwaMEURrQ3MY/vSqvRWYz0g6QZTb7znMemA4kRAUwhxG2uMpVDl6bKPsGNCCTdKKXA2o4pLBXEVq1C/4sbJgZSa6QQQQSSZnS98Ql8kZqtw0vE8SLcQBsKM21LnYWCE4lB0kzZrb/5FCCDLXHExhmh9yKBOcVsRPSeR+ZnHSIQD2BWNZGHPRiIRwRhvmYV3gfPKdd7OrT938FA/Wqvy5AtiEA8IDdgjALor844xCkUq1Urcp4d59k3xH/bln1elyFbkI5Cj5j02x9fRWz8joGWsATgJCyQyOsQW8d2fOOGdNuazYgH8YjRN//yfQL9hJm+dnoNy2Ow25uEz13g39xRGlbSiAjEQ0besvHNQCDnWjAt0qygtQrHIO5NW7GJOjMXrbt7bXc2IVWsDKH8rfvbGPX1dzBoOgPnRapYNlYi4/an7njtSq/szDZEIBnGhM33bWDmH7kF4u5VZ8btP7tz7WZvLMwupIqVYZid7KyAqOZfu1lYgaBKvbYzWxCBZBia1RlmPBKJQXTotX2OgrHKPeM3PniZ17ZmAyKQDIPZd6bdkqXMzsKQ91DWxiAKQA3z2tZsQASSSZj1KfVdZl9QKIi0bOnIa6dnMdSj/je6fttrk5s7IpAM4qlfFrTTrCjiQUI5WqqBPhLVIgDfYK9tbu6IQDIIhr4z5CV8ltfgiOew+kh8dh+JVoOHrO/Uwmu7mzMikAyCWf3I6SUQDspDnsQ5qUP4PHDmKXRqT6/tbs6IQDIK1dH8J4kE487MXrs33VXd0lqafFOJCCRDGLO+Z2etVWut3QG5dqWcxK1utRu7tncnr+1vrohAMgTWOX3MBx72OJBQlcps6v2UofbAVd2yvYsmEi+SIiTVJAMYuabwUij82WznJUTlYDFAPJVBe4nxrH0+KleL6Ory+2rfT6PZWYF4kAxAKzUmFFuoOAOnFBTxfIPz5gB0yO40dKfCQ2KRlCAexGNK1g6+XHH9jnD7VMiDuF3Im1Pur+4YfFG2puhFAh6PvBEUEbF9db2h2k5/uOrztBagmSMexGOU1s+7Yg/HuPTQBA1qeuRan8+sarEzgZFhJzLmEp7wtjTND/EgHjJs9ROdCLze6TnsxHZzv3PaA/OucGa7l/18wBpm3B86cs+txcBXR1rmtZ1196zDaS5Ks0U8iEcMWT/kZGaqdc9o4pzVxOwp90dPsKg1poRauZRraG7Yk3y7xUFDOg6TiAjEKw76qthMTFRuUVib73cVD81ZFf2xaQ9VvcVa/YF1VCeijvSVoMSbAjVPRCAeMOTl0mKAfhpqgXKIIuJNoGCQajCeYKapkRYuZ99I2BNdXvLKkDvTW6LmiwgkzTy+quxmDTWDHQOgIuM+HN6kZuaDM99t6Dsqu8yuY6bPWDsFFvQi4WMDMlYkSYhA0siQV0aeTVBrrGRER6+51Sql6R/6IDfap8GMWdHxix20090lr5RckIYiNXtEIGliUJ3/pHojZwMznRrxGDoq9tChalbfWT1n7W3s+1pw63nM6kC8aYKYiYxA4yITGkcEkgb6LPC3NLh+LTMuY2fvd1gckfiBgOmzulZuaMp3lncr/1prVQu357AnnNNUOHjh4NNSXLRmjwgkxXSt8+fl5hvrGHSbK86INNXagfrG0z44efjRfHeOgUpmYrsVixyp8pSvcvNkxOFxIgJJMadovMxQd1qBtN1n4RwUtbPVIf2g3+/XR/PdlT0qPwHoF+4Z4iPrHpqtXEOC3itlhcsCZJ7XFDGgbtIpAaP+dYbuEHpYdTgDN7y3VyL8F5jvmdp76v5juY/BmE6s7jV74dm9ziEYp5+U+00fAHOTWLSsQjxICuhTN/m7RwLG2wzq4MqZssZ3OH7xFd8zt2DSrmO91+yCil8B2BG6R2TxT9jZvqxGJLd02YUIJMn0XjblSg4Y74KonT34yRFAuzv2CuZ1e37r8d6TWU2GI2nRXlvE9CsXDl444sGkFC4LEYEkkd5Ly29j6P9mqLZWwGyJJMpzsHp8fvfxK5Jx3++0bbWcWf3dPX7dMW6EfGOScZ9sRASSJB5ZWjlAk+/XgDqJraoUHM259i+81mrc/AJ/0uIC/23+ADOmO1Pf7YDdvPd1g2pHycI7x4AIJAkULJtRA/A8ZxWKHYtxWn0fUNBQo2p7PP1c0o1okT8XWn1tzXzi9CDBTSlJYjwGZDzIcdB10azzlY/XKOj2IQlouKXhOt5P4IcX9Bj3y1TZ8/jC0cFYpMw5KJHtJRQ0WF88p3DSJ6m6f3NEPMgx8tOlsx9SPrUNoPYxLVOOrNyQTNQnIPwgleII4gvo6bCSFkN7y4NoUsS+oam8f3NEPMhR0nnBgm/l5Bx+gYh7RDwEke0xnBWrUN8Ev5GfZ3Sv6jb663TY9/iCcS8BeNS94k7IoRCw3wgEzqoaWJ4WW5oD0lF4FHRZPL8jKLAUoLahBy7oIbRrJaioWXueX9Jj+DhTQWmCAlSufQ6BOO7MjNbKlzcQwOR02XOiI1WsJtBpyZKTOy+unadJbdZAWzvohmvOXNgB+SFi1WVpz+Fj0ymOIC/2n/AhQButfhFrffWwX9MoTqc9JzoikEa4f8nCnnkIfAyiAZHmW8TEGnAul7abA/oHS3oNe8Urm1n7Kqw4xBGThOORswbOfUrGrTcREUgDdFqx4sL7liz5NUMtZqgzosUQwkrniDyM61sGjKuX9yn9wEvb5/XzvwHGTvPAWdWypy0d5aV9JxISpEfRccGClvm5+U8qcBlB5zmDbxXZcyjp1grSoQ8Q8/C63oMyJilwwDx/PxDPj4lFwpm+zPjR/EH+Td5ZeGIgHsTBT5a+/OOWuW0+ItA4BuUhpqPPmXiIyO/Le4bi9pkkjiAtDn97MZi+gqMH35mnpQBJYmwC4kEA3Llw7bnkC7yowPc4O/ice9tz2J6EoJ95tVd/v9f2N0T/uc8+TczPmAdxWrWg6cqqIU9v98S4E4Ssbua9sWZNm1b5agxYDyOm/ODTw+HGWg4PgmVrnAXbKzyBPlFE3V/tWfQHr8uQCJ2jX1D1NBaM0DJtrr4RsywjzD4ToUGytop129LXi1u0zNmlGWMYlG8H33bzrZWm7jrGLOPAkfav9uyb0eIIUtPP/xU0LY+pZmmKjNfqXTjL39ZrOzOZrPMgty7Z8CBITwL4Evc7Ee8Q6e6zxUGhStZ/K0MPXNunj6ctVEeLVpipDPSxTlhVrVAZlVZDAEg6fANkRwziZ3XzxVu6AbqMoK8JxRaOOIOdcYUj9mAj+Af6DDBGru/1yHKvi3Gs9Hth/Jtg3BJ8TTGtWvQV5QfOqRroP+CdhZlLs/YgHerezkd9oAjqN6XMOB/mA0Ixvd9wRBwWjMNMqMjZ32rCuoH3ndAPD4Gmc1ggHJWjBeDbfMAXjEPmeGVfJpNxHqRd3QcnGZzfWTHdwNC3EPHlAH9JhM0E1H3Q7eKXG/uOa5e9c3oOHSkG8xAF/S2Xx2BtjcwIeY/YFivFep1PYdgvejzcbFLD+80cvxtM55oHsSL5qLrkyUs9Mi2jySiBXFy36x7FmAvw2TFZseYVZnVoNzQe++CR/3wj+vPXL/nd2UaObySx7k/QLUNVJ8NqmrUFYgsm1HSrw+P/jB2KqXRDrwc2elH+VFI0fWIJARXmQZzOQ9a4t6Zs3C88MzBDyZhWrEtW7FqkGK8BOLuhayj0v/NI6dfbr/hgdOT8Vcv+dPnVy99bHPDl/A2MIQxYc0ExoqbCsb/JhukvTFSwqWfn9s1RHEFa5NbPB/Dv+D3rABHJhNdxyAgPcsnKXYMBvABnT4MjBdBugA0H0uFqEYhH+aBvBOv77UDbrkIFfxaVKxiPeArr/OeK+dlf9/xJRvWCp4p+Fc9NZGBsbKAeuYKvqi4bt80b6zITzz3IBXV/ORdEU4/ls8QoZ6b7I8d2+rl1Rcxx+Fn4N5jHHs5tc2G2iAPmVKW5M8A4Epk7K9yvE8Kc4EGVeWth5uG5QHIpdwjCVaJ47qzhKlK0EOA6diWx2u8fBGGy74jv/Dd7/vj5rd1uOJi0gpwAzC0r+wLMi8KO2JzskUPxR3gpaXTvV17eYBU3G/FcIMzcIepMI5+gBq5ukmhyoXGTztPDOi7beFPHzZubdTN3PNjImWr6XrYHUkUSGM1mf61lQJUDz2OQS+p2HzQ9CLt9hdMH2HGIDsmAo5IIw519kdYp9znDEZOEWrUcHYT7wfymj4yNCvyrTT3vyYrEvaLJk1aDuXMDAfvX7FPn1I4a9Y1nBmYQnv6CXlD3l1PgaHE6GjhK3fZx1KhwqyMw6tcgdElrIr6bQXdrZty++LU9CnqT0rwpRx9ev75vt38eU8EyHKUxRQOdzYOo1BMwTkE9igBM987CzMFTD3J23d/yW0GHeqnZGWI37kHg6NyzvUNkHioddU433kFoHUdSTMz3/gDgZZ8PK9f3eHi3Z3+oFFD03KTfA/iheRCbCr+r5snR53tkWkaRCVWszwCc1TSBsPUwu/Om7HyqYxIIO3vSozoT2brv78HGyhwDK9cWFfzDwz9ZUiicOKkbEVbGrWax2S/StfqpUY1mLTR3vBfIyl3LQdQ9WiB221OcPhG2xeFjfS+T8TGBL1Osg7+I3yfwFYr1OY7+DssrNF0gnOAa/RYxXs45outeHdjrc0//gMdB34nlu4n5XFMQdqAemUfr7dqfjbrRYxM9x3OBXLRi1zVK0buNC8TZUWj9qm/b3r3dVfG+t+OCzS3357durzjwQ2J9G7G+ncCnxggkpqoVp9rlbBTgyIIG1vnfKsbiQCBn9bqBj3yZvr/c8VM4oXwYGJWIzvINv1aG/uH88WMyftxLKvFcIEEuXbV7BjOK7ZYs5xCleJ4k9KD6wO23dW+3o6n36bD8ze/7DH0DMXcgMjoQ+AJn1QvOOCSeQKwht6HFN0JCg2UPgTco0lWvFBV5NuXP0TDI7z/pkMr/zAzM4ahewWr1WFHzzKgCr+30kowQCEJVrY0A7owVCOKknWiQ1g/tKGi3+njuecfCTacFfPW3KObOCvpuMJ8et0rF7thHscMOt0DMa0G8CxoV+YdaLFxa3LPRJZ29pPCZ8kkARjk9h5WfxYBP8XlVz4z+q5c2eknGCCTIpXW7h4L5ZwCfiqj+cCuzl/ljn6JHt3e7+LhXZormjiVrr1ManQDjXmJcFxWkOzyJq4rlOI6Kk5gPAbrGF1CzVw7u/2Gy7U0GAyZW/kfgSP0/GkpiBPP02omjsnbphIwSSJArF/2z9ZEWhx5jcDcCfw/AGeFf6/9hosV/7nbRC+mw445la87Mqw90Y+YHCPqOiKdokkAsbxJpkjYftF+BjZmrBg1amw77j4ZCf3k1NBU10KJ1qIU22s6ZNOZfHproGRknkEyk05IlJ9ORnIeJ8FNi/jGFJ6x2VcGixBGJpyICcYjorwDNyAkcqV5aXJwR1a8+/qn/qQwd8nDxqlqax9ZMGvW8dxZ6hwjkKLmndukFChhAzP2I+TRXqxo7YiXnOUaMZwHzIQVdAyNnxrKhj33sdbkKn5y8Dox7Y0Ybho7//9pJI7/rmXEeIgI5RrrW1eUd2XukC0M/rphvarCqFWm+tvY63EoUucb8hd5IjJlLhw7+Rbpng4/Qd8zkW4loS6QTxEpgtL1Jv9rJZTVe2OYlIpAk8EBtbTvSNFhp7gVGm2ixICKQSLWMYVXBbBGZ738AonHLhj6xxotyFI2Z8h4zrjYPYvtFPqydUtbOC7u8RASSRHotWtR634H6XoowiJjbI14VyymMiAdhdgjGHALwjk/rksUjhr2VTvv7jp5aQMzLrBNR8QgZ3KmmcmTMXADNGRFIinhoTvWNBB6kmLsAnOcSBscTiKNZO3INeAOTGrG0dEha0vD9fr/664HWu815AeL0rDPzxgUVI+9Khy2ZgggkxRTMm3d6QKOf0ngMzOcBjQgkqvoVPFZa1yFHP7Vo+PCPUm1v4YgppSBMiyeQ4N4H44r5laNPqNkljwfPRxQ2d5YPHPjlqscHTrpsz+cXgKkbMd4D7HQOYsdD2MDGoG4c8O3sNWl6de8JFWel1GCl54PVAXsOX8d8vppgcE5WLb4jHsQDfjpz9l0KNAbMHcmaQcGOQaI9SMTDhL3MYTBm5x7hiTX+0q9SYV9h6bQZABc34EUCAZ/63qLK0r+n4t6ZhngQD1hZPHjD8uJBtymiDsy81hry2KSNWoBRWp9Du3qPr/xZV//sk5JuIKsZpkXhiR2se4de5+QEOGsW3xEPkgH0mDqzHRRGg6kg+AA6A3mYPdmwBmnEOb+HwM/t19+8uMrvP5IsmwqHTV0NRud4PetgHGyh68+aM6f5p5+IB8kAlo4o3rm0tLg3M10E8Gzn2IyY17Ee5TusqbIVTv7fR5+uKEqWTZp0hes+2rXPr6e8Qcm6VyYjHiQDKZg4/Uxfju9ZsC4iwAft9BjO2MSOWRxi2h50Si+NLz3upuHCIVP/B4zromMRCt3yi2/+b985q1Ylz2tlIj6vDRBi2fHrN/Zv2/T6a1fffu8KAs4D+FLXQCaO71HCAjmTGf2vufmuFhffccNbO7dsMY7Vjquvv+tfxOgW9lTWPFoU3ECtW7bM++yP7254N4lFzzikipXBLBr7xEeLxhQ/oMA3AXgnJhaIR0goOcw0rvWhk3cUjqz4wbHe/7zT9r0Kpk8dUwLZogzNxjjani+oedKsC9fceHRCZYHWNIGYL3B7j+gql9OrmGqaua+eRq+qLD3qqVaLBlYMYuLZru+H4/uJOldXl3qSO5YOxIOcQCx8smT53/S/L2XgCQB7GmwKhnNvZuUWn+TjD/uUVdx8tPfc+9XeamjHvRCTfjI8ScXLSMSDnKD08M882aeNCcQYBM0+8x/SCuLjxSmRNHZUU06gtHZy06cWLeo/bRQYk1zf7XitoL4//6WSPyW9kBmAeJATlKX+4r2Lni0pJgM/iIlPEm0a/fhwzkd9iqfd3dR7tchtORvA13G9CANa69GpKaX3iAdpJvQZV/EYDEyypvAJexOraViz69c/fH55zmEurqoa0eh8XkVF054DY0xDIvEp46KqhSP/koqyeYl4kGbCSxNL52rKuxCgl2KqVxp20qG7068gkEMf9h00tdG5r4h8M8AIuDoOHWkoRsDXLJMYxYM0Q/qOmnYDG1RLjEtjq1mRYb7hi609vfxNK/RO1NJV1GfqcjB1j20QMB+jI2zUn1+7YtQJP2+xE/EgzZAF5cPfztvbuj2AZ12/+uYvP4XXio9OI+Eubfbxu/36TWlwVncFX7nbG0VS4s3vyCPOGZrGYqYF8SDNnMLSaVexQSvh8CbkbNWK8ST4BoyetbXD487fVdSz4i0wQpNaxzYtf+M70Pq7VesGHkhH2dKBeJBmTm3F8Pf3nbr3SmZMAUPbzb6O5de0Y8/UBqA1hX0qJnftWhebimSgPF4MEj5uo1vue9STgqYI8SBZROHgyg5gXg7Gea4HG1F7K++Lf6NVbpcFC4r3OL+nqKBiJ4DL4vW7APi45uXSS9JYrJQiHiSLqJ1dsvWbFsEHm6bHiIOjxBGKNW5RgcD7RT0qXeuEkMaU6M84BHdxYedpD3tSwBQgAskyVlWWHqydV1JCRDeB8DeXF4isE+IWzn8AvKXokQorAP9a713KjC/ijRUJfl4R/B4ULSVIFSuLKSwsbwPKWwLN90elzMd6F/M8rT2SG3hk8eKy/YVdKsYSMDFuWksQ1ndVrx2x0ZuSJQ8RiIC+facVE9MMiheXxKar/H+k6MHAYXzu8/FnYLSOySSGuf9V9brSOz0sVlIQgQgmfXtNv14RvwrNbc0T8cUR2Q5Acx9AXUXgcfGDdQrW36+teq3kj16W63iRGEQwWbB42O/zAoeuAOP1uA+8e2sFUB0B50DjkPvaSAciYGge62mhkoB4ECGGooJpY8D0XGOZwe4BWo5Vch0CU9q4rGrDiD97WJzjQjyIEEPN8uHPK/CNYPwzqgnXEkZccXDsmBQN3xiPi3NciAcRGuSxB6ecEfD56phxq+U1tCMQ1+HHJ1GVLPgrzHRe1aZhJ+RCoOJBhAaZu7rsi7Ov2Hs7AzNd3gGw52pI3OJlntesn/DC/mQgHkRoEv06T3scml6MqVI1tsHc/7vNIW5bufXoJ43wGvEgQpOo/vnwOWSon4BpXxNFESLkWb61LxcDPDT/mBEPIhwV/e+ruJwNeh2McxoViHv7R5t6vuhE8yLiQYSjYv660g+Uz7iGNX7foEC0ewu3erXd5zvxvIgIRDhqqtaN+NI4/HVHMFY2ua8klB1c5rXtR4tUsYTjot+dlROgMS66itVQPwmDH6neWrLca7ubingQ4bio3lTyJDT1azj+iGrx0jTEY5OPCvEgQlIo6ljZmTRWU7zUk6hqF2u6p/qdoes9NrlJiAcRkkLNlpKf+0C3grE3XnqKKy6BHum1vU1FPIiQVAbeNPMqrfUGMM5opPl3tTmdKbgtafo7a/4YRNvnvz/sNY+L4EIEIiSdx/6r8nsGaDMY34uX4Wvt43UsMt71Ke4y908lu9JsdlykiiUknbm/K9nlU/XXQ9P2hqpZCbZrDYO29b9iRjevywHxIEIqGXL9zJMPGToYjN+YwGPE35sNXtS+ZtvQHem0ORoRiJBy+l8zfQ+A05skEMdrAm2r2jH0qnTaGo1UsYSU0u+ayssscUTgJn/8yv6XTx+fEsOaiAhESCnEakTMJHNoJD0F4Qm2Q6/7e2m/CERILcyhdRGjhYH4noRA0efP8MPv2XMqAhFSC6NV3Hgj6jWF/4sjGvqi3Xdapc3eKEQgQqr51Px/ApEQyP0eXNfoM3bu8Ww5BRGIkFKY8ceGBlU5Y42YIN4+3u6HX6ff8hAiECGlEPN7DcYa8eDo6/i91FjWNEQgQkppedD3KoDQuoXOKlW014iPNhQqU21jIkQgQkqZ9b/Fe1lzrxhxRBNHMASeUL1j2La0GNoAsUtsCUKS+eOeX3563RmdTgLohrgXxPUktLVq59BeqbatMcSDCGlh3o6hZQR6GIzPrZPxq1mHiOkp5Le4Nc0mxkVysYS0MuDaeafg4OGRDH0rgeyl3RjbSOEtpfS0OdtLPvHUSEHIFAZcMfPCkrMr8r22QxCEY0BiEEFIgAhEEBIgAhGEBIhABCEBIhBBSIAIRBASIAIRhASIQAQhASIQQUiACEQQEiACEYQEiEAEIQEiEEFIgAhEEBIgAhGEBIhABCEBIhBBSIAIRBASIAIRhASIQAQhASIQQUiACEQQEiACEYQEiEAEIQEiEEFIgAhEEBIgAhGEBPy/AAAA//8iiVG0Tu91WgAAAABJRU5ErkJggg==;imageBackground=default;" parent="1" vertex="1">
          <mxGeometry x="178.27999999999994" y="380" width="24.45" height="24.45" as="geometry" />
        </mxCell>
        <mxCell id="3_nuJzFFmOV05L7b0hrJ-98" value="" style="shape=image;verticalLabelPosition=bottom;labelBackgroundColor=default;verticalAlign=top;aspect=fixed;imageAspect=0;image=data:image/png,iVBORw0KGgoAAAANSUhEUgAAAJAAAACQCAYAAADnRuK4AAASLklEQVR4nOydC3RV1ZnH/9+5NwkBFJHqVEatWt9FWx/tKHWa3CAwOLpqrWRpO4IKAkVFdFytDKC3AlbbUSDII+GpjFYS0eooQoScewMiKgIiIKgJEsFADOGR9733nG/WyYMJIY/zPvcm+7cWa3Hv2Xt/X8753/38zt4SBAILxIWAZFn+gdc+JBJr167t57UPzXguoPz8/P7MPMJrPxIJSZIukGX5Lq/9gNcCys3NTU5KSnpdkqTPvfQj0SgsLNwK4NlwOHyV1754KqCzzjprNoBrk5OTN3jpR6IRDAZVAJtUVX1z/fr1fb30xTMBFRQU3A9gnPaDGjhwYK1XfiQw7wP4cSwWeyUYDHr2HD0xLMvyz4honvZ/InrfCx8SHUmS8pv+OywtLW2qZ364bXDDhg2nad0fACnaZ1VV8932oSuQlpb2LYA92v+Z+UlZltO98MNVATEzRSKRbACXoLH2KSssLBQdaJMwc8OPj4i05/hqYWHhWW774KqAQqHQKCK6u/kzM7/f1CEUmECSpJbN/zmKoizXfqSu+uCWIVmWBwCY0+pr0f+xADPLAKItvhoaDoefcNMHVwS0Zs2aXk39nh4tv49Go0JAFggEAlXacL7ld8z8dEFBwS/d8sEVASUnJ88FcEWrr3cOGTLkOzfsd3FaD0L8RPSaW8sdjgtIluWRAEa2/r65AyiwhtaPbOPrc30+3zI3+kOOCigcDl/RPN9ziuGTO4ACkxQWFn4C4Egbl24NhUKPOW3fMQFt3LgxVVXVXGbu2cblWH19faFTtrsT2iiWiOR2Lv+loKDgX5y075iA6urqZgMY0M7lrUOHDq12ynZ3Q1XVD9q5lKT1h2RZPsMp244ISJblO4nogfauE9GHTtjtrkiS1NH9vADAQsds212gLMs/BLCgozTMLARkIzU1NVuIKNJBkjsLCgp+54RtWwXU1OvPAdDhEFJVVSEgG7nlllvqmXlLR2mI6MX8/Pz+dtu2VUDhcPheALd1kqw0IyOjxE67Al21et+kpKRFdtu1TUDr1q37ETPP7iyd1v8hIrbLruAEm3SkGVZQUDDGTqO2CCgYDEo+n28JgNN0JNfzhwoM4vP5dHULiOj5cDh8oV12bRFQWlraeGbO0JNWdKCdoSk+6ICOpL2Z2bZZassCCofD5wF4VmfyWEpKyqdWbQraRdePk5l/FQqFbGnKLAtIVdWZAHrpTL5VxD87h5HanYiesSMAzZKAQqHQMAC/1ZuemUX/x0E6mVA8CWY+U1GUv1q2aTbjxo0bUwG8aCQPEW03a0/QOX6/f4fBLCNlWb7Jik3TAopEIk8w80VG8hDRHrP2BJ1z0003VQIoNZBF60jPl2XZb9amKQGFw+FLABgOnYzFYl+asScwhNF7PADARLPGTAlIVdUsZk42koeIjg8aNKjMjD2BfkzW8k8VFhaeY8aeYQE1tZn/ZjQfM38pZqCdR7vPJrL1jsVik8zYM9z2EdGfmU3pYJ+ZTE4SzM7uiRq6NOZTLyKWLgLUC5moHzF6azc1Gon4i3d/3p+BGgJXA1QN4BAIxWAuYhVFMSV5x5svzz3s9d/SDDN/Q2R8jpCIxqxbt+65QYMG6ZmMPIEhARUUFKTpnXFuDRF5fpMnPz/3PJ8/KR3gG1XgRqUOV0FiHzVMynJDn/LkOpK1TulpjY+jxUPhxs8kAUlSFJmjxnzZMInHtEmBlL9yyfxit/+2Zizc5xSfz/dfAB40ksmQgLTax7Bb/0+dhbymmfpCzk/gV38DptsBXMeNTx82R5tf2vCPeKQPCjJHj/kcKv5BjH+sWJqztVlyLmHlPo8Oh8PPNi2L6EK3gEKhUICZ00y71uqdMCfRmia1ln7PxH8A+Bq4+7KmJperQLiKCVMzR435jInmIdn3at68eVUuWDd9n7WBETNPbto1RRdGOtFBc241wsyOb4YUzFp47pOzF8xS6vAdE+cAuMZpmzr4KTFnU33sQOboMTPvGDPG1GhHL0Rk9T7f37S+qc+enkRr16692ufzfWbJLYBVVb1k0KBBRRbLOYXg3Lk/VKL+SSCMbd71ww6ikfrK4t079ISoGKGOwPMiSb7n3lywwPZpDVmWPwRwg5UyiOiZ9PT0yXrS6qqB/H7/KS8GmoCISJdTenn0hRdSn5ydPV2J+YtBmGCneBykB4MeS4qqezNHjZ0y7OGHbfN53bp1Q6yKB42txQi94R6dCkgriJmHW3UKjQq6z659bJ6clTO0t6/XDgY0UabaUabL9AR42unV9duG3/eAlb5lA2vWrOnl8/lab15hlnPD4bAuIXaqMlmWLwfwhS1uNXJYUZSBN998s6lljeDMpWcoUmQ+AMd3KXWoCWuPRSmR2onLly83/L5c01rW2wCG2ehPMBAIdDrq1tOEXW+PPyfo5/f731uzZs3ZRjNOzlp4gyJFtrkhHg8YHUlK3Xz36NFXm8g732bxQO9z1yOgf7buy8kw80XJycnvNG37oicDTZ2d/UeJ1fUAfmS3P/ECEy5XWPpo+OixuqMFQ6HQVE18Drij67l3KiAicmoHsZ8nJye/tnnz5qSOEj2clZUyNSvnfwA8Z2bpJQHpoQ37M+8fM3v48OG+jhLKsnwvMz/tkB+6nrueGuigdV/a5daqqqrVq1evPrOti8EXFp3Zl1PyATjyVmVco40qTz9j5T333NNmLR0KhSYBWOKgB7qee6cCUlXV0ShCZs5ISUn5KBwOn7QB1eTn556n+JSNDPzKSfvxDIF+XZ+UKg8fNerED2zVqlUpsiwvZ+Zn7F+RaWGbSNe8X6cCCgQC24nI6TdJL2bmTbIsN4SJBOcs7i8l+QsAXOaw3fiH8HOCP//2e+89Q5blH6ampoYB/IcLlt/Rk0hPH4iZOc8WlzqAmU9n5nffWrV6qqLGCsC42GmbiQNf16tHz/WRSPRTAI7u94PGZ16Slpam6wUIXTPRRLTCslc6UFSWdu4rnSRqnlOJRmMDVoUK+yuK4rgtZs7VG/ynS0BpaWmbicjRGBdmxvZvDkRqI5FEnFV2hdKyMoQ/+gQmA/qMoLvC0FsDsaqqL1lyqRP2HChTj1bXGoqz7o7sKd6LrTt3OWliZyAQ2Kw3se5wDiLKAnDMtFsdsL/8KL6rOOb54XeJwkfbtuOb/YYiT40w3Uhi3Q8tEAgcBTDLlEsdUFVbj69Ky8RxBwYp2LgJVTU1tpZJRLvC4XCukTxGf/Wz7KyFFFXFjpLvoszeH72ZaNRHIg0isrM/xMzTjJ5dYujB2V0LFZWWc019tMOlDEH7HDh4CNt27balLDO1D8y8FxaLxWYSkeVIuiNVNdh/+KjLwcpdj48/245jlZWWy1FVdZKZk5MMC2jw4MHHmPk/jeZricqM3fvLxDYvNqCqKtZ/vNlqU/a/GRkZb5vJaKrvkZ6e/gqAkJm8GiXfV4j5Hhv5tvQgir/dbyovEWk98QlmbZsSEBGxJEnjtRbNaN5ITMHeQxXiFWeb+WDzpxwzMUutquqMQCDwjVm7pkc/aWlpXwD4b6P5ig+W1zBzIgS/JxTVNbW088uvjWbbXV5ebvgZtsTq8PnPAHRvalQfjaG04piYbXaIrTt2aoMcvcmjRDQiMzOzox3uO8WSgAKBQB2Au/W+TruvrCLC3SOq0BNq6+ux8yt9tRARPZWenv6JVZuWJ/ACgcAOPaMyre+zv+JohyGaAuts3bELOlbs5VAo9Jwd9myZh2FmCoVCb3V0zMHeQ4eVvYcOx72AkpP8uH7Albjy4gvQr08frquro70lJZA3fIBPP9vuxkq4ZW6+aSAuuaDtdw+IqEJRlKuNbuPSHrZN5Mmy/AMA2wGc8u63dtM37CqujiqK3u2APeHsfn3x+1uHom+f09u8/vGWrZizaDEikajrvhnhnLPPxu1DBrV5jYjuSE9Pf9MuW7atQQUCgXIAI9q69v3xKo538fTumYqRt/97u+LR+MW11+DBUffDzAZOblJaVoaKo6cuWRJRjp3igd2n9QQCgbXM/LfW35eUHfneTjtOkHHD9TitV1unc57MDdddi58O+IkrPllh16md6S8qKysftduO7avg5eXlUwCcCEiKKgqO19W7cgS1WXw+CVdfdonu9OkDb3TUHzsoKvlWbdFf00bJv7vtttvsjf9wQkCZmZmRWCz2W63l0j6XHasqB3Ncd57P7NOnofOslwvOP99Rf+ygprZWKjt8Yre7cYFAYJsTdhyJwxk8eHBJ044eyv7vj3i+N2JnaDWQEfy+uP49nKBoX0lDJGkgEHAsHNmxQK6MjIzw8dr6P1VHov/klA27OHKssiFCQC+lhw456o9dfFFUbDlyojMcjQT8uOibMJgdO3LaLuojEXy9T/e+kvhwc2KcWBWJRA8GAgHDC95GEKGkTazd+AkUpfN4qpL9B1D4oTh0qBkhoCYOlh/G6/kFHYro0Pfl+OuLc40sWHZ5xMJmC3Z+VYzyiqMNc0KXXng+fFLj76uyqhqhDz7AG++s0kY3XrsZVwgBteLQ4Qr8/d18JPn9SPFL6r6v90gVR482hI4KTkUIqB2isRgqj9egvKLCa1fiGtEHElhCCEhgCSEggSWEgASWEAISWEIISGAJISCBJYSABJYQAhJYQgioI4iPeu1CvCME1AHUFJYraB8hIIElhIAElhACElhCCEhgCSEggSWEgASWEAISWEIISGAJISCBJYSABJYQAhJYQghIYAkhIIElhIAElhACElhCCKgLw4DteyK2xlEBJcVSvgZ4HoAqJ+0IToaB7cw0Gsd7/dJpW65sePyn7Ow+yfW4D4yHAPzYDZt2UFtd/WVJ0e5LvfZDJyqANwHKyl2cvb5RR87j6o7ZwWBQUs88ZxhzwwFng922b5QEEVAFMXJUP+bn5eSUuG3cswcYnJN9uariIQZGAujtlR8dEecC+oyZ5qCy56t5eTM92/XK8xogmJV1eox73Efgh+OteYtHATHwHlR+Lm/pwkK3mqmO8FxAzQzPzfVdcfDoXcw8GcAVXvuD+BPQ2xLTtNeWZG/22pGWxI2AmtH6SUrf/ncCPAXAVV76EicCWskST89buNCRneatEncCOgEzPZm18HYGTwVwjRcueCggrWlaQZBmrFi8QPeRol4QvwJqwZRZObdKhKkM/oWbdj0QkCacVxQfZqzMydntol3TJISAmpkye8EtBPobgCvdsOemgBgcgoRH47Wpao+EEhCaOtuXlR4ZR40nRjt6jJRLAioC8Hju4py34mFUZZSEE1AzwZlLz1Ao8hQI2vDfkeNzHBZQDIQZlakpf3lvzpx6h2w4TsIKqJnJWQtvkFh9CYDtD9opATGwU1IxYsXSnC12l+02Cb8aP2PCA5uqlOqfEXh2gjQBM6t6plzXFcSDrlADtWRK1oI7iOkVAD3sKM/mGoi15jZ3Uc5cm8qLCxK+BmrJ9Anj3gBJQwDE28ZQESbK7GriQVcTkMa0CQ+s90H9VzDKvPaliRiIfpO3KPt1rx1xgi4nII3gI3/Y4WMaCuDUw9PdhUE0IndR9iqP/XCMLikgjeCjY7apwK1aV8YrHwj8UO6i7L97Zd8NuqyANGY8MnYDg+8AEDVVAFkY1DGmrVi8cJ75AhKDLi0gjemPjFvNjZONrsHAG1ee3z/opk2v6PICQsPobGw2AW6NgHYgxT8yGAx2iyMOu4WANKQjpRMBrHXYTIXCvl/nzZvXbd5C6TYCCgaDsWiSkgngK4dMKBIoc+WS+cUOlR+XdBsBaTw7fvwRZuU2JyYaifH4a4uz19ldbrzTrQSkMX3i+D3EdJdWY9hY7EsrluTMtrG8hKHbCUjj6Ylj1oDwuD2l8cc9lci4BFnItZ1uKSA0LHmMncXAUovFlHPUd8eyZcvqbHIr4ei2AtKoVqofZG3YbRIG7s17ecEBe71KLLq1gGY+9litX8JwTUtmsuctznnXAbcSim4tII3gw2N3g3m8oUyELZU9UyY55lQC0e0FpDFt4riXwbxMZ/IqJUZ3JXIcs50IATXhS6UHAezqLB2Dx69clu3UZGTCIQTURHDs2BofsdYfan9XL+KX8xYvXO6qY3GOEFALghPG7SLwQ21dI+ArTk560H2v4hshoFY8/ci4pSB6udXXUai4qzstkupFCKgNaut7aKOyL5o/E+OPXeU1HLvpUq/12MkT8+b1RR33K9q5BXmLFxd116UKgcBRRBMmsMT/BQAA//9kSupqEYb+7QAAAABJRU5ErkJggg==;" parent="1" vertex="1">
          <mxGeometry x="-93.67000000000002" y="605" width="24" height="24" as="geometry" />
        </mxCell>
        <mxCell id="2MJEt1ap6he8lQfQHLGo-1" value="" style="shape=image;verticalLabelPosition=bottom;labelBackgroundColor=default;verticalAlign=top;aspect=fixed;imageAspect=0;image=data:image/png,iVBORw0KGgoAAAANSUhEUgAAAMgAAADICAYAAACtWK6eAAAdI0lEQVR4nOy9C3xU1bn//XvWJIGAaK1We/BW70cUtVrrwSteaotXVKBELkLCRUECCYSr2lFACZeEiwiEJMgdgkoBixZowdYj7anWCoh99VShtbWveGxF7pm9nv9n9szsy8xkEmBm9pB5vn62e/aePbOfFfZvnvWs9ay1FARBaBARiCAkQAQiCAkQgQhCAkQggpAAEYggJEAEIggJEIEIQgJEIIKQABGIICRABCIICRCBCEICRCCCkAARiCAkQAQiCAkQgQhCAkQggpAAEYggJEAEIggJEIEIQgJEIIKQABGIICRABCIICRCBCEICRCCCkAARiCAkQAQiCAkQgQhCAnK8NkAIMe+da1vtP9SyHStqx1BtwfrvPujtJTe+/SevbctmyGsDBGDq1pvGE9OT8d/l32rKebqsw5Yt6bZLEIF4SsVbt94MpWsYuDj+FdY/D4PwTOl//eZZInAaTcx6RCAeUfH2Le0Z/H7sv4F9yDFSoMUjbnyzd1oMFEwkSPcIBleH1EBwbyFhuMVhvddr6tu3DPXI5KxEPIgHTHv7lkIANZHjOJ4i5jNsn/vSR4fPLb1h68HUWilAPIg3MPBMxEs04Cmc14KZwi/M7fQAt7w73TZnKyKQNFP525suAOPs0FFs9QpwaMEURrQ3MY/vSqvRWYz0g6QZTb7znMemA4kRAUwhxG2uMpVDl6bKPsGNCCTdKKXA2o4pLBXEVq1C/4sbJgZSa6QQQQSSZnS98Ql8kZqtw0vE8SLcQBsKM21LnYWCE4lB0kzZrb/5FCCDLXHExhmh9yKBOcVsRPSeR+ZnHSIQD2BWNZGHPRiIRwRhvmYV3gfPKdd7OrT938FA/Wqvy5AtiEA8IDdgjALor844xCkUq1Urcp4d59k3xH/bln1elyFbkI5Cj5j02x9fRWz8joGWsATgJCyQyOsQW8d2fOOGdNuazYgH8YjRN//yfQL9hJm+dnoNy2Ow25uEz13g39xRGlbSiAjEQ0besvHNQCDnWjAt0qygtQrHIO5NW7GJOjMXrbt7bXc2IVWsDKH8rfvbGPX1dzBoOgPnRapYNlYi4/an7njtSq/szDZEIBnGhM33bWDmH7kF4u5VZ8btP7tz7WZvLMwupIqVYZid7KyAqOZfu1lYgaBKvbYzWxCBZBia1RlmPBKJQXTotX2OgrHKPeM3PniZ17ZmAyKQDIPZd6bdkqXMzsKQ91DWxiAKQA3z2tZsQASSSZj1KfVdZl9QKIi0bOnIa6dnMdSj/je6fttrk5s7IpAM4qlfFrTTrCjiQUI5WqqBPhLVIgDfYK9tbu6IQDIIhr4z5CV8ltfgiOew+kh8dh+JVoOHrO/Uwmu7mzMikAyCWf3I6SUQDspDnsQ5qUP4PHDmKXRqT6/tbs6IQDIK1dH8J4kE487MXrs33VXd0lqafFOJCCRDGLO+Z2etVWut3QG5dqWcxK1utRu7tncnr+1vrohAMgTWOX3MBx72OJBQlcps6v2UofbAVd2yvYsmEi+SIiTVJAMYuabwUij82WznJUTlYDFAPJVBe4nxrH0+KleL6Ory+2rfT6PZWYF4kAxAKzUmFFuoOAOnFBTxfIPz5gB0yO40dKfCQ2KRlCAexGNK1g6+XHH9jnD7VMiDuF3Im1Pur+4YfFG2puhFAh6PvBEUEbF9db2h2k5/uOrztBagmSMexGOU1s+7Yg/HuPTQBA1qeuRan8+sarEzgZFhJzLmEp7wtjTND/EgHjJs9ROdCLze6TnsxHZzv3PaA/OucGa7l/18wBpm3B86cs+txcBXR1rmtZ1196zDaS5Ks0U8iEcMWT/kZGaqdc9o4pzVxOwp90dPsKg1poRauZRraG7Yk3y7xUFDOg6TiAjEKw76qthMTFRuUVib73cVD81ZFf2xaQ9VvcVa/YF1VCeijvSVoMSbAjVPRCAeMOTl0mKAfhpqgXKIIuJNoGCQajCeYKapkRYuZ99I2BNdXvLKkDvTW6LmiwgkzTy+quxmDTWDHQOgIuM+HN6kZuaDM99t6Dsqu8yuY6bPWDsFFvQi4WMDMlYkSYhA0siQV0aeTVBrrGRER6+51Sql6R/6IDfap8GMWdHxix20090lr5RckIYiNXtEIGliUJ3/pHojZwMznRrxGDoq9tChalbfWT1n7W3s+1pw63nM6kC8aYKYiYxA4yITGkcEkgb6LPC3NLh+LTMuY2fvd1gckfiBgOmzulZuaMp3lncr/1prVQu357AnnNNUOHjh4NNSXLRmjwgkxXSt8+fl5hvrGHSbK86INNXagfrG0z44efjRfHeOgUpmYrsVixyp8pSvcvNkxOFxIgJJMadovMxQd1qBtN1n4RwUtbPVIf2g3+/XR/PdlT0qPwHoF+4Z4iPrHpqtXEOC3itlhcsCZJ7XFDGgbtIpAaP+dYbuEHpYdTgDN7y3VyL8F5jvmdp76v5juY/BmE6s7jV74dm9ziEYp5+U+00fAHOTWLSsQjxICuhTN/m7RwLG2wzq4MqZssZ3OH7xFd8zt2DSrmO91+yCil8B2BG6R2TxT9jZvqxGJLd02YUIJMn0XjblSg4Y74KonT34yRFAuzv2CuZ1e37r8d6TWU2GI2nRXlvE9CsXDl444sGkFC4LEYEkkd5Ly29j6P9mqLZWwGyJJMpzsHp8fvfxK5Jx3++0bbWcWf3dPX7dMW6EfGOScZ9sRASSJB5ZWjlAk+/XgDqJraoUHM259i+81mrc/AJ/0uIC/23+ADOmO1Pf7YDdvPd1g2pHycI7x4AIJAkULJtRA/A8ZxWKHYtxWn0fUNBQo2p7PP1c0o1okT8XWn1tzXzi9CDBTSlJYjwGZDzIcdB10azzlY/XKOj2IQlouKXhOt5P4IcX9Bj3y1TZ8/jC0cFYpMw5KJHtJRQ0WF88p3DSJ6m6f3NEPMgx8tOlsx9SPrUNoPYxLVOOrNyQTNQnIPwgleII4gvo6bCSFkN7y4NoUsS+oam8f3NEPMhR0nnBgm/l5Bx+gYh7RDwEke0xnBWrUN8Ev5GfZ3Sv6jb663TY9/iCcS8BeNS94k7IoRCw3wgEzqoaWJ4WW5oD0lF4FHRZPL8jKLAUoLahBy7oIbRrJaioWXueX9Jj+DhTQWmCAlSufQ6BOO7MjNbKlzcQwOR02XOiI1WsJtBpyZKTOy+unadJbdZAWzvohmvOXNgB+SFi1WVpz+Fj0ymOIC/2n/AhQButfhFrffWwX9MoTqc9JzoikEa4f8nCnnkIfAyiAZHmW8TEGnAul7abA/oHS3oNe8Urm1n7Kqw4xBGThOORswbOfUrGrTcREUgDdFqx4sL7liz5NUMtZqgzosUQwkrniDyM61sGjKuX9yn9wEvb5/XzvwHGTvPAWdWypy0d5aV9JxISpEfRccGClvm5+U8qcBlB5zmDbxXZcyjp1grSoQ8Q8/C63oMyJilwwDx/PxDPj4lFwpm+zPjR/EH+Td5ZeGIgHsTBT5a+/OOWuW0+ItA4BuUhpqPPmXiIyO/Le4bi9pkkjiAtDn97MZi+gqMH35mnpQBJYmwC4kEA3Llw7bnkC7yowPc4O/ice9tz2J6EoJ95tVd/v9f2N0T/uc8+TczPmAdxWrWg6cqqIU9v98S4E4Ssbua9sWZNm1b5agxYDyOm/ODTw+HGWg4PgmVrnAXbKzyBPlFE3V/tWfQHr8uQCJ2jX1D1NBaM0DJtrr4RsywjzD4ToUGytop129LXi1u0zNmlGWMYlG8H33bzrZWm7jrGLOPAkfav9uyb0eIIUtPP/xU0LY+pZmmKjNfqXTjL39ZrOzOZrPMgty7Z8CBITwL4Evc7Ee8Q6e6zxUGhStZ/K0MPXNunj6ctVEeLVpipDPSxTlhVrVAZlVZDAEg6fANkRwziZ3XzxVu6AbqMoK8JxRaOOIOdcYUj9mAj+Af6DDBGru/1yHKvi3Gs9Hth/Jtg3BJ8TTGtWvQV5QfOqRroP+CdhZlLs/YgHerezkd9oAjqN6XMOB/mA0Ixvd9wRBwWjMNMqMjZ32rCuoH3ndAPD4Gmc1ggHJWjBeDbfMAXjEPmeGVfJpNxHqRd3QcnGZzfWTHdwNC3EPHlAH9JhM0E1H3Q7eKXG/uOa5e9c3oOHSkG8xAF/S2Xx2BtjcwIeY/YFivFep1PYdgvejzcbFLD+80cvxtM55oHsSL5qLrkyUs9Mi2jySiBXFy36x7FmAvw2TFZseYVZnVoNzQe++CR/3wj+vPXL/nd2UaObySx7k/QLUNVJ8NqmrUFYgsm1HSrw+P/jB2KqXRDrwc2elH+VFI0fWIJARXmQZzOQ9a4t6Zs3C88MzBDyZhWrEtW7FqkGK8BOLuhayj0v/NI6dfbr/hgdOT8Vcv+dPnVy99bHPDl/A2MIQxYc0ExoqbCsb/JhukvTFSwqWfn9s1RHEFa5NbPB/Dv+D3rABHJhNdxyAgPcsnKXYMBvABnT4MjBdBugA0H0uFqEYhH+aBvBOv77UDbrkIFfxaVKxiPeArr/OeK+dlf9/xJRvWCp4p+Fc9NZGBsbKAeuYKvqi4bt80b6zITzz3IBXV/ORdEU4/ls8QoZ6b7I8d2+rl1Rcxx+Fn4N5jHHs5tc2G2iAPmVKW5M8A4Epk7K9yvE8Kc4EGVeWth5uG5QHIpdwjCVaJ47qzhKlK0EOA6diWx2u8fBGGy74jv/Dd7/vj5rd1uOJi0gpwAzC0r+wLMi8KO2JzskUPxR3gpaXTvV17eYBU3G/FcIMzcIepMI5+gBq5ukmhyoXGTztPDOi7beFPHzZubdTN3PNjImWr6XrYHUkUSGM1mf61lQJUDz2OQS+p2HzQ9CLt9hdMH2HGIDsmAo5IIw519kdYp9znDEZOEWrUcHYT7wfymj4yNCvyrTT3vyYrEvaLJk1aDuXMDAfvX7FPn1I4a9Y1nBmYQnv6CXlD3l1PgaHE6GjhK3fZx1KhwqyMw6tcgdElrIr6bQXdrZty++LU9CnqT0rwpRx9ev75vt38eU8EyHKUxRQOdzYOo1BMwTkE9igBM987CzMFTD3J23d/yW0GHeqnZGWI37kHg6NyzvUNkHioddU433kFoHUdSTMz3/gDgZZ8PK9f3eHi3Z3+oFFD03KTfA/iheRCbCr+r5snR53tkWkaRCVWszwCc1TSBsPUwu/Om7HyqYxIIO3vSozoT2brv78HGyhwDK9cWFfzDwz9ZUiicOKkbEVbGrWax2S/StfqpUY1mLTR3vBfIyl3LQdQ9WiB221OcPhG2xeFjfS+T8TGBL1Osg7+I3yfwFYr1OY7+DssrNF0gnOAa/RYxXs45outeHdjrc0//gMdB34nlu4n5XFMQdqAemUfr7dqfjbrRYxM9x3OBXLRi1zVK0buNC8TZUWj9qm/b3r3dVfG+t+OCzS3357durzjwQ2J9G7G+ncCnxggkpqoVp9rlbBTgyIIG1vnfKsbiQCBn9bqBj3yZvr/c8VM4oXwYGJWIzvINv1aG/uH88WMyftxLKvFcIEEuXbV7BjOK7ZYs5xCleJ4k9KD6wO23dW+3o6n36bD8ze/7DH0DMXcgMjoQ+AJn1QvOOCSeQKwht6HFN0JCg2UPgTco0lWvFBV5NuXP0TDI7z/pkMr/zAzM4ahewWr1WFHzzKgCr+30kowQCEJVrY0A7owVCOKknWiQ1g/tKGi3+njuecfCTacFfPW3KObOCvpuMJ8et0rF7thHscMOt0DMa0G8CxoV+YdaLFxa3LPRJZ29pPCZ8kkARjk9h5WfxYBP8XlVz4z+q5c2eknGCCTIpXW7h4L5ZwCfiqj+cCuzl/ljn6JHt3e7+LhXZormjiVrr1ManQDjXmJcFxWkOzyJq4rlOI6Kk5gPAbrGF1CzVw7u/2Gy7U0GAyZW/kfgSP0/GkpiBPP02omjsnbphIwSSJArF/2z9ZEWhx5jcDcCfw/AGeFf6/9hosV/7nbRC+mw445la87Mqw90Y+YHCPqOiKdokkAsbxJpkjYftF+BjZmrBg1amw77j4ZCf3k1NBU10KJ1qIU22s6ZNOZfHproGRknkEyk05IlJ9ORnIeJ8FNi/jGFJ6x2VcGixBGJpyICcYjorwDNyAkcqV5aXJwR1a8+/qn/qQwd8nDxqlqax9ZMGvW8dxZ6hwjkKLmndukFChhAzP2I+TRXqxo7YiXnOUaMZwHzIQVdAyNnxrKhj33sdbkKn5y8Dox7Y0Ybho7//9pJI7/rmXEeIgI5RrrW1eUd2XukC0M/rphvarCqFWm+tvY63EoUucb8hd5IjJlLhw7+Rbpng4/Qd8zkW4loS6QTxEpgtL1Jv9rJZTVe2OYlIpAk8EBtbTvSNFhp7gVGm2ixICKQSLWMYVXBbBGZ738AonHLhj6xxotyFI2Z8h4zrjYPYvtFPqydUtbOC7u8RASSRHotWtR634H6XoowiJjbI14VyymMiAdhdgjGHALwjk/rksUjhr2VTvv7jp5aQMzLrBNR8QgZ3KmmcmTMXADNGRFIinhoTvWNBB6kmLsAnOcSBscTiKNZO3INeAOTGrG0dEha0vD9fr/664HWu815AeL0rDPzxgUVI+9Khy2ZgggkxRTMm3d6QKOf0ngMzOcBjQgkqvoVPFZa1yFHP7Vo+PCPUm1v4YgppSBMiyeQ4N4H44r5laNPqNkljwfPRxQ2d5YPHPjlqscHTrpsz+cXgKkbMd4D7HQOYsdD2MDGoG4c8O3sNWl6de8JFWel1GCl54PVAXsOX8d8vppgcE5WLb4jHsQDfjpz9l0KNAbMHcmaQcGOQaI9SMTDhL3MYTBm5x7hiTX+0q9SYV9h6bQZABc34EUCAZ/63qLK0r+n4t6ZhngQD1hZPHjD8uJBtymiDsy81hry2KSNWoBRWp9Du3qPr/xZV//sk5JuIKsZpkXhiR2se4de5+QEOGsW3xEPkgH0mDqzHRRGg6kg+AA6A3mYPdmwBmnEOb+HwM/t19+8uMrvP5IsmwqHTV0NRud4PetgHGyh68+aM6f5p5+IB8kAlo4o3rm0tLg3M10E8Gzn2IyY17Ee5TusqbIVTv7fR5+uKEqWTZp0hes+2rXPr6e8Qcm6VyYjHiQDKZg4/Uxfju9ZsC4iwAft9BjO2MSOWRxi2h50Si+NLz3upuHCIVP/B4zromMRCt3yi2/+b985q1Ylz2tlIj6vDRBi2fHrN/Zv2/T6a1fffu8KAs4D+FLXQCaO71HCAjmTGf2vufmuFhffccNbO7dsMY7Vjquvv+tfxOgW9lTWPFoU3ECtW7bM++yP7254N4lFzzikipXBLBr7xEeLxhQ/oMA3AXgnJhaIR0goOcw0rvWhk3cUjqz4wbHe/7zT9r0Kpk8dUwLZogzNxjjani+oedKsC9fceHRCZYHWNIGYL3B7j+gql9OrmGqaua+eRq+qLD3qqVaLBlYMYuLZru+H4/uJOldXl3qSO5YOxIOcQCx8smT53/S/L2XgCQB7GmwKhnNvZuUWn+TjD/uUVdx8tPfc+9XeamjHvRCTfjI8ScXLSMSDnKD08M882aeNCcQYBM0+8x/SCuLjxSmRNHZUU06gtHZy06cWLeo/bRQYk1zf7XitoL4//6WSPyW9kBmAeJATlKX+4r2Lni0pJgM/iIlPEm0a/fhwzkd9iqfd3dR7tchtORvA13G9CANa69GpKaX3iAdpJvQZV/EYDEyypvAJexOraViz69c/fH55zmEurqoa0eh8XkVF054DY0xDIvEp46KqhSP/koqyeYl4kGbCSxNL52rKuxCgl2KqVxp20qG7068gkEMf9h00tdG5r4h8M8AIuDoOHWkoRsDXLJMYxYM0Q/qOmnYDG1RLjEtjq1mRYb7hi609vfxNK/RO1NJV1GfqcjB1j20QMB+jI2zUn1+7YtQJP2+xE/EgzZAF5cPfztvbuj2AZ12/+uYvP4XXio9OI+Eubfbxu/36TWlwVncFX7nbG0VS4s3vyCPOGZrGYqYF8SDNnMLSaVexQSvh8CbkbNWK8ST4BoyetbXD487fVdSz4i0wQpNaxzYtf+M70Pq7VesGHkhH2dKBeJBmTm3F8Pf3nbr3SmZMAUPbzb6O5de0Y8/UBqA1hX0qJnftWhebimSgPF4MEj5uo1vue9STgqYI8SBZROHgyg5gXg7Gea4HG1F7K++Lf6NVbpcFC4r3OL+nqKBiJ4DL4vW7APi45uXSS9JYrJQiHiSLqJ1dsvWbFsEHm6bHiIOjxBGKNW5RgcD7RT0qXeuEkMaU6M84BHdxYedpD3tSwBQgAskyVlWWHqydV1JCRDeB8DeXF4isE+IWzn8AvKXokQorAP9a713KjC/ijRUJfl4R/B4ULSVIFSuLKSwsbwPKWwLN90elzMd6F/M8rT2SG3hk8eKy/YVdKsYSMDFuWksQ1ndVrx2x0ZuSJQ8RiIC+facVE9MMiheXxKar/H+k6MHAYXzu8/FnYLSOySSGuf9V9brSOz0sVlIQgQgmfXtNv14RvwrNbc0T8cUR2Q5Acx9AXUXgcfGDdQrW36+teq3kj16W63iRGEQwWbB42O/zAoeuAOP1uA+8e2sFUB0B50DjkPvaSAciYGge62mhkoB4ECGGooJpY8D0XGOZwe4BWo5Vch0CU9q4rGrDiD97WJzjQjyIEEPN8uHPK/CNYPwzqgnXEkZccXDsmBQN3xiPi3NciAcRGuSxB6ecEfD56phxq+U1tCMQ1+HHJ1GVLPgrzHRe1aZhJ+RCoOJBhAaZu7rsi7Ov2Hs7AzNd3gGw52pI3OJlntesn/DC/mQgHkRoEv06T3scml6MqVI1tsHc/7vNIW5bufXoJ43wGvEgQpOo/vnwOWSon4BpXxNFESLkWb61LxcDPDT/mBEPIhwV/e+ruJwNeh2McxoViHv7R5t6vuhE8yLiQYSjYv660g+Uz7iGNX7foEC0ewu3erXd5zvxvIgIRDhqqtaN+NI4/HVHMFY2ua8klB1c5rXtR4tUsYTjot+dlROgMS66itVQPwmDH6neWrLca7ubingQ4bio3lTyJDT1azj+iGrx0jTEY5OPCvEgQlIo6ljZmTRWU7zUk6hqF2u6p/qdoes9NrlJiAcRkkLNlpKf+0C3grE3XnqKKy6BHum1vU1FPIiQVAbeNPMqrfUGMM5opPl3tTmdKbgtafo7a/4YRNvnvz/sNY+L4EIEIiSdx/6r8nsGaDMY34uX4Wvt43UsMt71Ke4y908lu9JsdlykiiUknbm/K9nlU/XXQ9P2hqpZCbZrDYO29b9iRjevywHxIEIqGXL9zJMPGToYjN+YwGPE35sNXtS+ZtvQHem0ORoRiJBy+l8zfQ+A05skEMdrAm2r2jH0qnTaGo1UsYSU0u+ayssscUTgJn/8yv6XTx+fEsOaiAhESCnEakTMJHNoJD0F4Qm2Q6/7e2m/CERILcyhdRGjhYH4noRA0efP8MPv2XMqAhFSC6NV3Hgj6jWF/4sjGvqi3Xdapc3eKEQgQqr51Px/ApEQyP0eXNfoM3bu8Ww5BRGIkFKY8ceGBlU5Y42YIN4+3u6HX6ff8hAiECGlEPN7DcYa8eDo6/i91FjWNEQgQkppedD3KoDQuoXOKlW014iPNhQqU21jIkQgQkqZ9b/Fe1lzrxhxRBNHMASeUL1j2La0GNoAsUtsCUKS+eOeX3563RmdTgLohrgXxPUktLVq59BeqbatMcSDCGlh3o6hZQR6GIzPrZPxq1mHiOkp5Le4Nc0mxkVysYS0MuDaeafg4OGRDH0rgeyl3RjbSOEtpfS0OdtLPvHUSEHIFAZcMfPCkrMr8r22QxCEY0BiEEFIgAhEEBIgAhGEBIhABCEBIhBBSIAIRBASIAIRhASIQAQhASIQQUiACEQQEiACEYQEiEAEIQEiEEFIgAhEEBIgAhGEBIhABCEBIhBBSIAIRBASIAIRhASIQAQhASIQQUiACEQQEiACEYQEiEAEIQEiEEFIgAhEEBIgAhGEBPy/AAAA//8iiVG0Tu91WgAAAABJRU5ErkJggg==;imageBackground=default;" parent="1" vertex="1">
          <mxGeometry x="-601.63" y="385.54999999999995" width="24.45" height="24.45" as="geometry" />
        </mxCell>
        <mxCell id="EvHn94h7MORutzxhYY-e-1" value="" style="shape=image;verticalLabelPosition=bottom;labelBackgroundColor=default;verticalAlign=top;aspect=fixed;imageAspect=0;image=data:image/png,iVBORw0KGgoAAAANSUhEUgAAA5wAAAJ+CAMAAADol//eAAAAIVBMVEVMaXHAJhmDEATZLCCmHhGkHhGkHhHYLCD//v7nfnf1zMpsiVDuAAAABnRSTlMA+f6IJt2ZoTNcAAAACXBIWXMAAAsTAAALEwEAmpwYAAATNUlEQVR4nO3d63ajSpKA0eYI5JLf/4F76WKXXSAJyAwIYO/zZ2bWdJly851IUgj+9z8AAAAAAAAAAAAAAAAAAAAAAAAAAAAAAAAAAAAAAAAAAAAAAAAAAAAAAAAAAAAAAAAAAAAAAAAAAAAAAAAAAAAAAAAAAAAAAAAAAAAAAAAAAAAAAAAAAAAAAAAAAAAAAAAAAAAAAAAAAAAAAAAAAAAAAAAAAAAAAAAAAAAAAAAAAAAAAAAAACCv9mrtgwB+aE9X3d31f9QorK5tT6fuo6fpTieBwpphNh/PdSYorFTmizD1CasYXss+69MCF5bRtuPL/J6fax807N/kMvUJGWfmD43lLQQZtQP0bnzqEypr25efmoxmfEKyoflXdzqt/deBnahZ5lefxidkWc7+y/IWVtudfcfuEORZzv7L+IQZJtygV8D4hGxD8y/jE9beA3qqMT5hhMg9oOd8uAJ5lrO9PPUJa3xwMq5PeULB0Py8XMLy9M0VKNgDuvz5/IzL0/iEHyYuZz///PkzaXxeJs5a4xPm7QFd/tyMHJ+Xy+efP1MnrXsTYNYe0HV03vO8jCnzz5/P6T/D+OTQ5n5w8hid78bno8w/0wfnnatPjqrgg5Ov6G55Dvf5t8zRC+ABxifHU/aR5o/RORjfzzJnD847t/ZxKG1beh/Qr/Zu/V2elVkYp/HJgdS4Ra/X39fuUL/MedtBv7k3gQN48+qh0foJ3q4+h/7PpYPzzu4Q+1bx5tnBDAeVD84745PdqvuNk3/2hF6oeKuf8ckO1f/GyejRWfc+XOOTfYn4muZl4VXtN7f2sRu19oBmjs6IL7AYn+xB1BeohzdmFxicd64+2biop44MfZq54OC80yebFfXUkQllhsbp1j42KmhoXi6fU9Kc+K3s6Vx9sjVRQ3NimUv06d4ENiRqaM4q855n5EOHjE+2IuZx7dMuNI1PWGw5W1bmV58fgdybwBGXszXKXKJP45MjDc2CC81neUb2aXxymFv0qrd57/MjkPFJJrHvOLncfVbsNHb31q1DHPHFYF+Zlob66cMV9m7x99wOdTo61Pv/9/U/F394bu3jqG/T/Ony5qud30kuEeUPxicraU8rv03zh8HZuVKSP3khLytY+z23vw2MzhWT/MXuEBt7KHT46Az6jvUsxifHHJoPlR/y/ldzPv/XlG56uTeB4+wBvX17Sp0/tWnO5/P5v//+OxfvSRufHHBoDo3OS7Uyz801zhp92h3icENzaHRWS/MxOevkaXxytKE58M7O0j/sb5k/4rz2WfwH65N0ZQ7dd1f3hp0ff/KlwtBsvv750WaV8Wl3iGoKb9Ebdc96jUgvVQbnj+XswOS0vGUnV5q3Lt9k2Ut0/in//aMuZWn+zvNrQ+hXnsXLW7tDlCr4mubkh1h+Fzo30K/ROfcLJwNlDk5O45MtX2kWfkl6Zp+Pn3mptZ59FWeNPJvTae3/jjnYcrb4SXmzx9/9515qlvnvhlD93aG1/5vmSEOzvMxHnpdZC9vPmmm+mJzVrj7lySIPBKr5qLwZeV5/+qVqmYMbQnXHpzxZ4DPNqmne85x8AJ9V03w3OeuMT3USfYte9Tan5/k5ZXCOKXNMnBXGpzwJvREoIM0ZddZO89WGUMXxqU7i0owYm3eT6rxULXP05Cwfnz5VIez22bA2A16AOyXNtxtCv8fn7D4bs5NhxQ8eCWyzcp1Typw2OcvGZ2d2MqT46bNvnk5Z6HPFNKfGOf+LZeJkQPm3qEMHZ7XROaPM0RtC5eNTnES0GTs4K43OGWXOm5zz4mzESU/7kT7O8tE5Z2jeJ+dCy9rmLE56Kjwa6DN7nLPbXGxD6CxOQuLMPzkL8pxS5uw7Ec7iZKNxlh/i3D4nbAgV3IRw/UniJCTO4HVtrc9Smjl9Rg/Nr60qcdJT45mX2/go5WpqnuM2hIru3HsckTjp6Zrso7Pua4mmjs/Qofnj3xbipKcr/jZ/8FVn/VeGTcozcmj+/PRVnPR059x1zn2aXp0+m9Dvcf48CHHS011Pwbx1xrQ5Ic/ANH8dgTgZjPOc9roz9DW4I/psAh+N+fsniZPhOM/Fb4gN2bMNG5sT8oxJs/+DxcmTODMOz6K3M1TrM2RoDvxMcfI0znR5LpLmuzz7G0Lla4zhnydOXsRZJ8/LNha0vzXfr/z7559/JmeF39CzfxWIk5dxVsmz9FUpt7cZfSztSTO/NoQqfOb0fEiLkzdxVtkZmv2OsbXKfNVnxaH58gvf4uRdnJWm5+S3c36FuVaZT/O8lxm4nhUn4+OslOe0QG8vt/5Y379Xn9WG5rsPbcTJqDgrrW5HvXn+/s75jzz+yajC9uyoBxiJk5FxVs3z7vLwefX1v3yk9N1nU+W3MOpGQXEyOs56q9u1zfm3wPWLZXXKHPvYP3EyJc6A8bmsx6Ce+b7rZb+dJk6mxbnZPB/L568L25WWz1O+OCpOpsa5uTyHtp9Cv9vy1LQnLoiT6XFu5eLzxa7wGoNz6rPExMmsOHOPz/uV5YvPUNPcDChOAuJMOT6/Pph5d3/D0sc16wm54mR+nJnG57gqH20uPDhnPltenJTEmSHPKVmusKid/9oHcVIW55qr21m30i+7qC15YZI4KY5z8fH5906CORZc1BaUKU7qxLlYnmVZ3mV41ok4WS7O6D5HbsOOGZwf20hTnNSLMyjPalU+2lxkcJaXKU6qxhmxOVQvy7vLJoamOKkfZ/3xean67NvPzaQpTqrHGfGl7O0saquVeT534qR6nBHjs9Lq9rKRoXlrs137RGCXcSZd3a79EqQpulacxMQZsDlUnGdkm3XLtKglNs504/OymTTtBhEdZ67NobVfujuFNgmPM2R1+5lpURuRps0gnjjVPtdyrG5DBmdAma43ea6tPDqv1l/dXrYxNG/7tGufARxodCYYn5+bSdOSlhfakDrX3RyqPThjypQmK9W54p1Dly0MTStaRmhPAdedK65uP7eRprHJWrtCDyusbisOzqgypUmC4bn8+LykH5rSZJK2206eL8fnZ/o0z83Jfe5kGZ4Bq9tnfVb6EmcT/Ks4mZ0kynOZ1e0l+dD8/i10J7cGkSbPJTaHPlOn+c9vwKUnmfIMHp/li9pm0b+8PJmgbbvA8zN6c6i0zcWG5jd5MlJ76oIXdqGbQ58bWc/+ok7ea0+n73MoOM+Y1e3ndtazv9gZ4rX2dFrqZL2dsB91XS5Fi9oV01QnY9az/5ywWxufKdezo/6W6mRKmvfTNu6sTfEu3hUvNX8fg1uGGNaeXpw2cWfulLM3TJPjL+dhJQx6Nja/Tt/9js/117PfxMmAv1u0a5zDt/P447Dr2W/ipO807kSOO49v53Jz1PXsg2fX0teO3rPY1fjMs559HI44mTk4w8/o21n9sZRM69kbT32nMM59bA6lutS880oGyuPc/up2ke9qTnT9D4uT4ji3vbpNdqn545jESU8363za5uo233r270GJk55u5mm1vfGZcD37WNJeiZOe7jz7ZN/S+Mx4qfnrXxjipKc7z65zO3lGpllyWD/+HHHSc31kUKXzK2uecWkWHd/vwxInPbfnedU7x+qf/wWHFnx8Zf/q+OewxElPVyGBxOMzMM26vzJx0vP1JMxd5rmZNMXJgK7W+ZZvdRt2SIXr2cHDEic9Xb3tl1x5xqVZ9kt6cljipOfXA96L80zzPOqs69mnxyVOerrKH15kyDPpevbl70ac9PRejZI7zxGTa4tpipMBQ+8tKs4zeHw+P74m7f7su+MSJz3DLxXLPj6Hji8wzOKh+f7IxEnPszf+lecZ/L2Va6H3Y2xCuyxfSYw6NnHS0wXe2Bqd5zKW+YBJnPS8fFeuPOPXsw/ipOfNi6zzr24jLZamOBnw9i3zx13dLnrDlDiZHmfur22FWfpeRnEyK87jjc8F17MP4mRmnMfaHFrjCwDiZH6cR1ndrvTdHHFSEucRVrfLr2cfxElZnFXyTNznit+YEyelce75o89Vv2suTirEuc/V7dqPgRAnVeLc3+bQapea38RJrTh3NT4zPDtJnNSLcy+bQ+sPzRtxUjPOPaxuk6QpTqrHufHVbYb17F0nTqrHueHxmSfNc3dq1z4R2GWcmxyfadazN10rTmLi3NzmUOhTLmewqCUuzk3dOZRoPXunTWLj3MrqNtV69sYFJ+FxbmFzKF+a2uSJU+1TLfP4zHapeeVDFJ5pK4/OxJtDEa/VLNYZmyw3OpNuDiVcz/p8k9fakDqzrW4TrmeNTdaqM9MjwZKm6WqTd9pT/evOTKvbjJeaVrSMFFZngtVtWZrnINJk/eG58rs+c6Z5bpqTOlnxI5WKec7MpOTnRr6K9/YDDE8yDM913mRflGbEL6F3WMYnOfJc+KGw+dOUJ7vJc0IzJT8q8u7egcNSJ6O0py72vvNlxmfWofnkuOTJW+2pGx9A7TN0dDzNNvdnX/3F1clr7Wl8AIWnaUk+rw+vKP2F17M/uI2PcWneT9S48zToeytNrqcC/T62dz/c7GRsmreTNXme15z+Kv6zVv6rqpNh92vNgZM/fZ91hA7NcX9LN8EzdmweKc9V17PfxMmkNm+nbtyZO+3sDdLk+Ms14qTvdZsL5Llmn+uvZx88HZMZbQafwyvmmWM9ez8UcTIzzj2Oz0RpXn+74mRunHvbHEqznv06GHEyP849bQ6lSvN+NOKkKM6drG4TrWf/Ho446emmnkobX91GPuCgKTgecdLTzVyGxWkOlObf36U46enmxLDR8ZlsPfvr9yhOerqZF0rbyzNdmr+OSJz0dPP/tR93shec8Msf7dx/kfw+InHS0xWcX9sZn9GPuSw/InHS09U9x1Lm2aQ7vv4RiZOe78ftzT7zcz/TJPD4KqYpTgZ0Fc61zOMzLs26RyROen4+qHZ+BVnz3Eqa4mTA76dIF+SZb3UbdkgRawxx0tPVW0TmynNTaYqTAf33L5TkGfs86gxHErXCFic9gy9HSZtns7dLzW/ipOfJm4tKXgQUEMWUA0v40cmIQxInPU9fK5b0PV1vGgn8VDP2tyFOerqg9+hVzGLoyJotfB9sykGJk57XL+RMOz5vgTbNx+OfJvSnLfE5qzjpefe23MR5LmSZz5bESc/7V1nnXd0uIXw9+yBOeka9Z/6o43PB+wbFybw4077JfRdD80aczI2zcHW7vT7j92d/Eyfz4zzU6nb578GIk6I4j7K6XePef3FSGOcRVrcLr2cfxElxnDsfn6t9r1uc1Ihzv+NzxUcuiJM6ce4zz3XWsw/ipFac+7tzaNU0xUnVOPc0Ptd/hJg4qRrnXjaHVh6aN+Kkdpw7GJ8Z0jx34qR+nNvOc/317E13atc+EdhlnNvdHEqS5vncrX0asN84Nzk+U6xnbzpzk8A4N7c5lGVouuBkgTg3ND5TvbRJmywQ50byTJWmNS3PnKqfbNk3h/Jcat5ok2fayqMz+/hMdKl55TMUXjgF1Jl2cyjVetbYZJ06E65uc11qGpusV2ey1W2y9aw0We26M9n4zDY0pclIbf0921R5pkvz3LXaZPXhuf4TNWeneQ5iajJJG3Xlufab7Jt0Q9MWLXvJs2iC5UvT1CRdnmusbuemeY4iTbLmuezqVprsS2yeJW86aJb4SYF3D0qTYu2pyzo+o39IYJk+O6GKreeZL01Dk+2sbuO+tzW3TGmyGWnzfNXR3D9VmmxL8Oq27GtlTd5H6f3gUpMwbXCeJX1+ND+U/Clhfz1Dk4OubquQJlsWvrpdr09psnXtPsdnaJnSZCnBeRZtDkmTg9vV6jbyC2HWs6xgL6vb0I9O1v4viaMKX90u0KdNIHaqPW17fEqTHWu3uzkU+uwRaZJB5hv7VknT/ix5bO+jT+tZjmNTq1sfnXAsm9kcsp7leDaxuvWYSw4q++aQNypwYG30tz4TpmloshVJV7fShPDNoTl5ShMW2hxKkab9WbYpTZ6BL4qXJhsVvDk0Ls+oMq1n2biVx2fY0OxOa/9mYbubQ03Yve2GJnsRf+dQs1yY0mRnou+Lvyf6EPlTfFWTHQq+c2gRhiY7tcD4DCVNdiz6a2WBfHTC3oU/cyiG+w04hO3laWhyGNFfK6vL/izHEv2t7Fp8dMIBbSFP61kOKvvmkDQ5srx52p/l8HJuDkkTUo5P61nIuDnkViBIuTmkTOhLkKc0IeXmkDQh49WnW4EgZZ6GJqS8+pQmpMxTmpByc8ilJmQcn+7Sg5SbQ9azkPLOIWlCqZA8pQkp87QLBBn7dC8QpMyz65QJCfduXWpCyr1baULKPN1xAMHm5SlNSHnxaUELKfOUJqS8+JQmLG1Mni41IeP4VCas3OfA9Wd3fTa0MmFl7eka6A+nk+tMSKNt29M1ytbABAAAAAAAAAAAAAAAAAAAAAAAAAAAAAAAAAAAAAAAAAAAAAAAAAAAAAAAAAAAAAAAAAAAAAAAAAAAAAAAAAAAAAAAAAAAAAAAAAAAAAAAAAAAAAAAAAAAAAAAAAAAAAAAAAAAAAAAAAAAAAAAAAAAAAAAAAAAAAAAAAAAAAAAAAAAAAAAAACA/2X0f+qXJpDeqlulAAAAAElFTkSuQmCC;" parent="1" vertex="1">
          <mxGeometry x="106.07999999999996" y="500" width="43.45" height="30" as="geometry" />
        </mxCell>
        <mxCell id="4A_rCCHhxW37e8GHwpuX-1" value="&lt;b&gt;&lt;font style=&quot;font-size: 15px;&quot;&gt;ODRL-PAP&lt;br&gt;&lt;/font&gt;&lt;/b&gt;" style="rounded=1;whiteSpace=wrap;html=1;verticalAlign=top;" parent="1" vertex="1">
          <mxGeometry x="50" y="580" width="90" height="55" as="geometry" />
        </mxCell>
      </root>
    </mxGraphModel>
  </diagram>
</mxfile>
